<svg width="247.565087890625px" height="129.2px" xmlns="http://www.w3.org/2000/svg" viewBox="126.2174560546875 10.400000000000006 247.565087890625 129.2" style="background: rgba(0, 0, 0, 0);" preserveAspectRatio="xMidYMid"><defs><filter id="editing-metal-beveled"><feGaussianBlur stdDeviation="4" in="SourceAlpha" result="blur"></feGaussianBlur><feSpecularLighting surfaceScale="5" specularConstant="0.8" specularExponent="7.5" lighting-color="#fff" in="blur" result="specular"><fePointLight x="-250" y="-50" z="300"></fePointLight></feSpecularLighting><feComposite operator="in" in="specular" in2="SourceAlpha" result="comp"></feComposite><feComposite in="SourceGraphic" in2="comp" operator="arithmetic" k1="0" k2="1" k3="1" k4="0"></feComposite></filter></defs><g filter="url(#editing-metal-beveled)"><g transform="translate(168.68183380365372, 100.15500068664551)"><path d="M60.54-18.30L60.54-18.30L66.75-18.43L66.75-18.43Q69.06-18.43 69.06-18.11L69.06-18.11L69.06-18.11Q69.06-17.28 59.71-16.64L59.71-16.64L59.71-16.64Q53.76-4.99 53.76-0.77L53.76-0.77L53.76-0.77Q53.76 2.18 55.62 2.18L55.62 2.18L55.62 2.18Q56.32 2.18 57.38 1.31L57.38 1.31L57.38 1.31Q58.43 0.45 58.66 0.45L58.66 0.45L58.66 0.45Q58.88 0.45 58.88 0.77L58.88 0.77L58.88 0.77Q58.56 1.92 56.93 2.69L56.93 2.69L56.93 2.69Q55.30 3.46 54.18 3.46L54.18 3.46L54.18 3.46Q53.06 3.46 52.42 3.33L52.42 3.33L52.42 3.33Q50.88 2.75 50.88-0.38L50.88-0.38L50.88-0.38Q50.88-6.85 55.81-16.83L55.81-16.83L48.13-16.64L48.13-16.64Q39.55-8.26 30.91-1.92L30.91-1.92L30.91-1.92Q17.98 7.49 10.69 7.49L10.69 7.49L10.69 7.49Q10.24 7.49 9.79 7.42L9.79 7.42L9.79 7.42Q-0.06 6.59-0.06-2.69L-0.06-2.69L-0.06-2.69Q-0.06-8.19 3.39-14.34L3.39-14.34L3.39-14.34Q8-22.53 16-28.32L16-28.32L16-28.32Q24-34.11 30.34-34.11L30.34-34.11L30.34-34.11Q36.67-34.11 36.67-29.44L36.67-29.44L36.67-29.44Q36.67-26.30 34.75-22.46L34.75-22.46L34.75-22.46Q32.83-18.62 30.85-17.60L30.85-17.60L30.85-17.60Q30.66-17.54 30.43-17.54L30.43-17.54L30.43-17.54Q30.21-17.54 30.21-17.66L30.21-17.66L32.32-21.12L32.32-21.12Q34.50-24.51 34.50-27.07L34.50-27.07L34.50-27.07Q34.50-29.63 33.38-31.20L33.38-31.20L33.38-31.20Q32.26-32.77 29.82-32.77L29.82-32.77L29.82-32.77Q24.83-32.77 17.89-27.20L17.89-27.20L17.89-27.20Q10.94-21.63 7.33-13.50L7.33-13.50L7.33-13.50Q3.71-5.38 3.71-0.83L3.71-0.83L3.71-0.83Q3.71 6.02 10.69 6.02L10.69 6.02L10.69 6.02Q17.34 6.02 28.74-2.56L28.74-2.56L28.74-2.56Q33.79-6.34 45.18-16.83L45.18-16.83L45.18-16.83Q42.94-16.70 41.02-16.38L41.02-16.38L41.02-16.38Q36.93-15.62 37.18-16.64L37.18-16.64L37.18-16.64Q37.44-19.01 39.62-19.01L39.62-19.01L39.62-19.01Q43.84-18.50 46.72-18.50L46.72-18.50L46.72-18.50Q52.22-23.55 63.17-35.07L63.17-35.07L63.17-35.07Q70.53-42.82 72.13-42.82L72.13-42.82L72.13-42.82Q72.83-42.82 72.83-41.73L72.83-41.73L72.83-41.73Q72.83-40.64 72.26-38.34L72.26-38.34L72.26-38.34Q71.68-36.03 70.98-35.52L70.98-35.52L70.98-35.52Q69.50-34.50 68.22-32.74L68.22-32.74L68.22-32.74Q66.94-30.98 64.58-26.14L64.58-26.14L64.58-26.14Q62.21-21.31 60.54-18.30ZM65.66-33.92L65.66-33.92L49.28-18.56L53.06-18.56L53.06-18.56Q54.40-18.50 56.38-18.50L56.38-18.50L56.38-18.50Q58.24-22.14 65.66-33.92ZM78.34 0.32L78.34 0.32L78.34 0.32Q73.54 0.32 73.54-4.99L73.54-4.99L73.54-4.99Q73.54-7.68 74.94-10.88L74.94-10.88L74.94-10.88Q76.35-14.08 78.02-16.26L78.02-16.26L78.02-16.26Q77.70-16.19 77.18-16.19L77.18-16.19L77.18-16.19Q75.65-16.19 74.62-18.37L74.62-18.37L69.89-12.22L69.89-12.22Q65.92-7.30 65.28-7.30L65.28-7.30L65.28-7.30Q64.96-7.30 64.96-7.55L64.96-7.55L64.96-7.55Q64.96-8.19 66.05-9.41L66.05-9.41L66.05-9.41Q71.62-15.87 73.92-20.35L73.92-20.35L73.92-20.35Q75.39-25.92 77.63-25.92L77.63-25.92L77.63-25.92Q79.10-25.92 79.10-24.64L79.10-24.64L79.10-24.64Q79.10-23.36 77.50-21.38L77.50-21.38L75.97-19.33L75.97-19.33Q75.97-17.98 77.95-17.98L77.95-17.98L77.95-17.98Q79.10-17.98 80.51-18.82L80.51-18.82L82.18-19.84L82.18-19.84Q82.30-19.90 82.82-19.90L82.82-19.90L82.82-19.90Q83.33-19.90 83.90-19.26L83.90-19.26L83.90-19.26Q84.48-18.62 84.29-18.11L84.29-18.11L79.87-12.54L79.87-12.54Q75.78-7.30 75.78-4.26L75.78-4.26L75.78-4.26Q75.78-1.22 78.59-1.22L78.59-1.22L78.59-1.22Q81.54-1.22 85.82-4.35L85.82-4.35L85.82-4.35Q88.38-6.21 90.50-8.51L90.50-8.51L90.50-8.51Q92.48-10.82 92.67-10.82L92.67-10.82L92.67-10.82Q93.12-10.82 93.12-10.34L93.12-10.34L93.12-10.34Q93.12-9.86 92.54-9.22L92.54-9.22L90.50-6.91L90.50-6.91Q88.77-5.12 86.66-3.46L86.66-3.46L86.66-3.46Q81.60 0.32 78.34 0.32ZM100.80-20.22L100.80-20.22L100.80-20.22Q102.53-20.22 102.53-18.88L102.53-18.88L102.53-18.88Q102.53-18.50 102.34-18.11L102.34-18.11L102.34-18.11Q96.58-10.11 95.42-6.02L95.42-6.02L95.42-6.02Q110.34-20.93 113.54-20.93L113.54-20.93L113.54-20.93Q113.86-20.99 114.11-20.99L114.11-20.99L114.11-20.99Q115.90-20.99 115.90-19.39L115.90-19.39L115.90-19.39Q115.90-19.07 115.78-18.75L115.78-18.75L115.78-18.75Q115.65-18.43 113.22-15.30L113.22-15.30L113.22-15.30Q110.40-11.97 108.45-8.90L108.45-8.90L108.45-8.90Q106.50-5.82 106.50-3.78L106.50-3.78L106.50-3.78Q106.50-1.73 107.39-1.73L107.39-1.73L107.39-1.73Q110.21-1.73 117.18-9.47L117.18-9.47L117.18-9.47Q117.31-9.60 117.63-10.05L117.63-10.05L117.63-10.05Q118.59-11.20 118.78-11.20L118.78-11.20L118.78-11.20Q118.98-11.20 118.98-10.56L118.98-10.56L118.98-10.56Q118.98-9.92 118.08-8.90L118.08-8.90L118.08-8.90Q110.14 0.13 106.82 0.13L106.82 0.13L106.82 0.13Q103.68 0.13 103.68-3.33L103.68-3.33L103.68-3.33Q103.68-6.78 106.24-11.26L106.24-11.26L110.34-17.92L110.34-17.92Q105.98-14.72 102.59-10.91L102.59-10.91L102.59-10.91Q99.20-7.10 96.42-3.52L96.42-3.52L96.42-3.52Q93.63 0.06 93.18 0.06L93.18 0.06L93.18 0.06Q92.22 0.06 91.68-0.74L91.68-0.74L91.68-0.74Q91.14-1.54 91.14-2.72L91.14-2.72L91.14-2.72Q91.14-3.90 91.97-5.89L91.97-5.89L91.97-5.89Q92.80-7.87 94.08-10.69L94.08-10.69L90.24-6.66L90.24-6.66Q88.83-5.25 88.48-5.25L88.48-5.25L88.48-5.25Q88.13-5.25 88.13-5.66L88.13-5.66L88.13-5.66Q88.13-6.08 88.64-6.59L88.64-6.59L88.64-6.59Q91.01-8.96 92.74-11.14L92.74-11.14L92.74-11.14Q94.40-13.31 99.58-19.46L99.58-19.46L99.58-19.46Q100.16-20.22 100.80-20.22ZM137.54-19.14L137.54-19.14L138.43-19.33L138.43-19.33Q139.14-19.33 139.78-18.75L139.78-18.75L139.78-18.75Q140.42-18.18 140.42-17.86L140.42-17.86L140.42-17.86Q140.42-17.54 136.45-11.68L136.45-11.68L136.45-11.68Q132.48-5.82 132.48-3.52L132.48-3.52L132.48-3.52Q132.48-3.33 132.54-3.14L132.54-3.14L132.54-3.14Q132.86-1.66 133.95-1.66L133.95-1.66L133.95-1.66Q137.28-1.66 146.11-12.67L146.11-12.67L146.11-12.67Q146.30-12.93 146.56-12.93L146.56-12.93L146.56-12.93Q146.82-12.93 146.82-12.45L146.82-12.45L146.82-12.45Q146.82-11.97 146.24-11.20L146.24-11.20L146.24-11.20Q138.05-0.26 133.76-0.26L133.76-0.26L133.76-0.26Q133.18-0.26 132.67-0.45L132.67-0.45L132.67-0.45Q129.86-1.54 129.86-4.67L129.86-4.67L129.86-4.67Q129.86-5.76 130.11-6.85L130.11-6.85L126.14-3.01L126.14-3.01Q122.37 0.32 120.67 0.32L120.67 0.32L120.67 0.32Q118.98 0.32 117.44-0.77L117.44-0.77L117.44-0.77Q115.71-2.05 115.71-4.16L115.71-4.16L115.71-4.16Q115.71-8.83 122.24-15.33L122.24-15.33L122.24-15.33Q128.77-21.82 134.21-21.82L134.21-21.82L134.21-21.82Q136.32-21.82 137.02-20.35L137.02-20.35L137.02-20.35Q137.22-19.84 137.34-19.49L137.34-19.49L137.34-19.49Q137.47-19.14 137.54-19.14ZM118.40-3.39L118.40-3.39L118.40-3.39Q118.40-1.09 120.00-1.09L120.00-1.09L120.00-1.09Q123.71-1.09 130.11-9.22L130.11-9.22L136.90-18.56L136.90-18.56Q136.38-19.46 135.23-19.46L135.23-19.46L135.23-19.46Q131.33-19.46 124.86-13.41L124.86-13.41L124.86-13.41Q118.40-7.36 118.40-3.39ZM160-25.15L160-25.15L160-25.15Q161.92-25.15 163.26-23.87L163.26-23.87L163.26-23.87Q164.61-22.59 164.61-20.29L164.61-20.29L164.61-20.29Q164.61-15.23 156.22-7.62L156.22-7.62L156.22-7.62Q149.12-1.22 144.77 0.19L144.77 0.19L144.77 0.19Q144.06 0.19 142.91-0.58L142.91-0.58L142.91-0.58Q141.76-1.34 141.76-1.98L141.76-1.98L141.76-1.98Q141.76-3.39 144.83-11.52L144.83-11.52L144.83-11.52Q147.90-19.65 149.06-20.61L149.06-20.61L149.06-20.61Q149.31-20.86 149.89-20.86L149.89-20.86L149.89-20.86Q150.46-20.86 151.10-20.26L151.10-20.26L151.10-20.26Q151.74-19.65 151.81-18.82L151.81-18.82L151.81-18.82Q151.81-18.75 148.64-11.39L148.64-11.39L148.64-11.39Q145.47-4.03 145.66-2.62L145.66-2.62L145.66-2.62Q148.42-3.46 155.49-9.34L155.49-9.34L155.49-9.34Q162.56-15.23 162.56-19.90L162.56-19.90L162.56-19.90Q162.56-22.72 159.74-24L159.74-24L159.74-24Q159.30-24.19 159.30-24.58L159.30-24.58L159.30-24.58Q159.30-25.15 160-25.15Z" fill="#444"></path></g></g><style>text {
  font-size: 64px;
  font-family: Arial Black;
  dominant-baseline: central;
  text-anchor: middle;
}</style></svg>