<?xml version="1.0" standalone="no"?>
<!DOCTYPE svg PUBLIC "-//W3C//DTD SVG 20010904//EN"
 "http://www.w3.org/TR/2001/REC-SVG-20010904/DTD/svg10.dtd">
<svg version="1.0" xmlns="http://www.w3.org/2000/svg"
 width="512.000000pt" height="512.000000pt" viewBox="0 0 512.000000 512.000000"
 preserveAspectRatio="xMidYMid meet">
<metadata>
Created by potrace 1.16, written by Peter Selinger 2001-2019
</metadata>
<g transform="translate(0.000000,512.000000) scale(0.100000,-0.100000)"
fill="#000000" stroke="none">
<path d="M81 5098 c16 -32 72 -100 151 -186 38 -40 68 -77 68 -83 0 -5 9 -9
19 -9 11 0 32 -11 48 -24 l27 -24 -47 -3 c-26 -2 -47 -1 -47 2 0 3 -17 11 -37
18 -29 9 -56 33 -115 104 -43 50 -93 114 -113 142 -19 27 -35 44 -35 37 0 -17
64 -111 154 -226 85 -108 113 -138 121 -126 8 13 84 1 124 -20 58 -29 71 -51
88 -146 17 -101 39 -150 83 -188 52 -43 67 -31 20 17 -62 61 -81 111 -84 221
-4 135 -40 194 -140 228 -37 12 -39 15 -40 58 l-1 46 40 -29 c22 -15 69 -47
105 -70 85 -55 134 -124 126 -179 -4 -21 -8 -57 -11 -80 l-4 -43 10 38 c6 21
16 36 22 34 6 -2 35 -43 65 -92 32 -50 88 -120 131 -164 106 -105 114 -116
121 -164 6 -40 7 -39 14 30 7 68 6 76 -17 115 -14 24 -53 75 -87 113 -43 49
-81 109 -126 200 -64 127 -117 207 -170 255 -15 14 -24 19 -20 13 10 -19 0
-16 -42 10 -20 13 -67 38 -103 56 -36 18 -98 57 -137 87 -66 50 -102 68 -87
44 4 -6 12 -7 18 -4 7 4 9 3 4 -1 -4 -5 3 -20 15 -34 13 -14 5 -9 -18 12 -29
27 -49 37 -72 37 -31 0 -32 -1 -21 -22z"/>
<path d="M766 5022 c92 -88 103 -104 129 -171 32 -84 72 -133 159 -196 119
-85 131 -107 147 -259 11 -107 30 -163 76 -221 15 -19 28 -41 28 -47 0 -7 9
-12 19 -10 12 2 16 -1 10 -9 -5 -9 -2 -10 10 -6 9 4 15 3 12 -1 -14 -23 309
-124 348 -108 6 2 3 5 -8 5 -38 2 -202 63 -255 96 -81 49 -149 121 -183 193
-26 53 -31 80 -37 175 -11 169 -18 180 -186 290 -67 44 -84 61 -107 106 -28
55 -36 101 -18 101 5 0 13 -12 16 -26 5 -19 9 -22 15 -12 7 10 30 -9 90 -72
47 -50 59 -59 27 -23 -29 34 -61 76 -72 93 l-19 33 54 -29 c60 -33 238 -206
307 -299 24 -33 62 -92 84 -132 37 -69 59 -92 142 -156 20 -16 65 -71 99 -122
79 -119 159 -202 231 -239 78 -40 145 -110 194 -202 l41 -79 1 57 c0 74 7 93
28 76 25 -21 -39 88 -88 150 -28 34 -77 77 -123 108 -43 28 -94 66 -114 85
-59 56 -112 147 -139 239 -14 47 -37 123 -51 170 -28 94 -88 222 -134 285 -47
64 -168 182 -223 218 -44 28 -59 32 -116 31 -74 0 -211 -13 -223 -21 -4 -2
-14 1 -22 7 -8 6 -19 9 -25 5 -5 -3 -10 -2 -10 4 0 5 -9 9 -19 8 -11 0 -17 -5
-15 -9 3 -5 11 -5 17 -2 9 5 8 3 0 -6 -10 -11 -16 -11 -31 3 -14 13 -37 17
-93 17 l-74 0 101 -98z m356 -91 c20 -7 49 -22 64 -34 16 -12 25 -16 20 -9
-11 18 0 15 42 -12 96 -60 254 -239 283 -321 9 -25 21 -37 39 -42 46 -10 70
-32 70 -62 0 -37 -10 -45 -32 -24 -10 9 -47 29 -81 44 -55 24 -67 35 -111 101
-29 42 -115 138 -208 230 -87 86 -158 160 -158 164 0 4 8 0 18 -8 9 -9 34 -21
54 -27z"/>
<path d="M1570 5110 c0 -39 81 -208 168 -350 166 -269 279 -430 471 -669 77
-96 154 -203 172 -237 36 -71 48 -151 38 -254 -4 -36 -6 -66 -4 -68 1 -2 13
34 26 80 18 62 24 109 24 184 0 95 -2 103 -37 175 -20 40 -61 101 -90 134 -29
33 -46 55 -38 49 8 -6 35 -25 60 -44 25 -18 -2 12 -60 67 -58 55 -134 137
-169 181 -35 45 -68 80 -73 79 -6 -1 -13 4 -16 12 -3 9 0 11 9 6 8 -5 11 -4 6
1 -5 5 -12 9 -15 9 -13 0 -32 16 -32 26 0 6 5 7 12 3 7 -4 8 -3 4 5 -4 6 -11
9 -16 6 -4 -3 -14 3 -21 12 -12 15 -12 16 5 10 21 -8 0 23 -80 118 -72 86
-192 273 -241 376 -44 90 -51 99 -75 99 -16 0 -28 -4 -28 -10z"/>
<path d="M1817 5093 c49 -287 74 -351 160 -414 28 -21 55 -49 58 -61 13 -43
97 -170 105 -158 5 8 9 7 14 -5 9 -24 8 -27 -6 -20 -7 4 -5 0 5 -8 9 -8 17
-19 17 -24 0 -10 111 -136 115 -131 2 2 -3 32 -11 68 -7 35 -11 66 -9 69 3 2
6 -2 9 -10 49 -162 49 -162 113 -232 35 -38 73 -86 84 -106 11 -20 17 -27 14
-16 -4 11 -29 87 -56 169 -50 154 -122 316 -140 316 -6 0 -7 5 -3 12 4 6 3 8
-3 5 -12 -8 -45 27 -68 72 -22 44 -105 296 -105 319 0 15 2 15 11 2 23 -32 2
11 -46 93 l-50 87 -44 0 -44 0 5 -52 5 -53 -22 50 c-38 83 -28 44 19 -74 58
-144 61 -148 112 -201 51 -54 72 -98 49 -106 -42 -17 -104 30 -156 120 -30 50
-30 50 -25 16 3 -20 -3 -9 -13 25 -11 33 -27 108 -36 168 -16 99 -19 107 -40
107 -19 0 -21 -4 -18 -27z m450 -665 c-3 -8 -6 -5 -6 6 -1 11 2 17 5 13 3 -3
4 -12 1 -19z"/>
<path d="M2290 5118 c0 -2 23 -122 50 -268 28 -146 49 -273 46 -282 -2 -10 0
-18 6 -18 6 0 8 -13 6 -29 -3 -18 0 -27 5 -24 6 3 8 -7 5 -25 -2 -17 -1 -29 3
-27 9 6 22 -62 14 -75 -3 -6 -2 -10 4 -10 5 0 9 -8 9 -17 -1 -16 38 -152 63
-223 6 -19 7 -14 3 18 -5 34 -3 42 10 42 9 0 26 -10 38 -22 l21 -21 -6 33 c-4
18 -7 36 -7 41 0 5 -11 9 -24 9 -29 0 -26 -12 -116 470 -34 179 -66 349 -71
378 -9 46 -13 52 -35 52 -13 0 -24 -1 -24 -2z"/>
<path d="M2432 5100 c0 -14 2 -19 5 -12 2 6 2 18 0 25 -3 6 -5 1 -5 -13z"/>
<path d="M2570 5042 c0 -65 -3 -82 -20 -100 -12 -12 -24 -22 -28 -22 -20 0
-53 34 -61 63 -6 21 -10 25 -10 12 -1 -30 32 -87 57 -96 46 -17 88 77 80 184
-4 68 -18 38 -18 -41z"/>
<path d="M2675 5028 c-3 -51 -13 -128 -21 -172 -9 -43 -13 -80 -11 -83 3 -2
12 36 21 84 17 95 32 263 24 263 -3 0 -9 -42 -13 -92z"/>
<path d="M2738 5038 c-3 -46 -13 -101 -22 -123 -12 -29 -12 -35 -2 -22 17 22
56 162 56 200 0 16 -6 27 -14 27 -10 0 -15 -22 -18 -82z"/>
<path d="M2835 5077 c33 -57 32 -78 -11 -200 -41 -117 -94 -317 -94 -356 0
-20 -2 -23 -10 -11 -24 38 -2 297 34 399 25 68 18 73 -9 6 -14 -33 -25 -61
-25 -63 0 -2 -4 -1 -9 3 -17 10 -26 -65 -26 -207 0 -141 -9 -158 -25 -45 l-9
62 4 -65 c2 -36 9 -108 15 -160 21 -183 26 -250 19 -250 -16 0 -39 124 -41
221 l-2 104 -5 -100 c-5 -78 -3 -111 10 -150 21 -64 52 -317 48 -383 -5 -67
13 -50 22 21 l6 52 2 -54 c1 -43 4 -52 16 -47 14 5 15 -3 10 -57 -4 -34 -10
-73 -15 -87 -5 -14 -11 -86 -15 -160 -5 -123 -8 -139 -32 -175 -23 -36 -24
-38 -4 -20 l22 19 -9 -24 c-11 -30 -20 -107 -27 -255 -8 -144 -12 -166 -48
-254 -27 -67 -31 -72 -44 -56 -16 23 -17 12 -2 -17 9 -17 9 -20 -4 -15 -10 4
-14 0 -11 -11 4 -18 -50 -112 -65 -112 -13 0 -21 37 -22 105 -1 43 -3 53 -8
35 -6 -19 -10 -9 -15 45 -9 89 -14 102 -16 45 -1 -34 -3 -40 -9 -25 -5 11 -6
24 -3 29 2 4 -1 12 -8 16 -16 10 -18 147 -6 267 9 81 9 82 -23 130 -28 41 -32
55 -28 93 l4 45 -14 -34 c-23 -55 -26 -121 -9 -187 9 -35 16 -102 16 -155 0
-72 7 -121 30 -208 17 -62 30 -115 30 -118 0 -2 -15 13 -32 34 -18 21 -37 41
-43 45 -5 4 -7 8 -2 8 4 0 -6 27 -23 60 -17 33 -35 83 -41 112 -14 66 -29 83
-83 97 -88 22 -118 73 -136 234 -6 47 -14 96 -19 109 -11 29 -49 64 -79 73
-15 4 -31 25 -47 61 -13 30 -27 54 -30 54 -3 0 1 -12 8 -27 8 -16 20 -46 27
-68 7 -22 25 -57 41 -77 39 -50 46 -69 64 -178 12 -80 24 -113 72 -205 31 -60
81 -158 111 -217 30 -59 58 -105 63 -102 5 2 19 -7 31 -22 45 -53 74 -76 116
-95 54 -23 71 -24 117 -2 28 13 38 14 48 4 9 -9 8 -18 -4 -40 l-17 -29 71 -63
c39 -35 77 -64 84 -65 30 -5 211 -137 273 -199 35 -36 68 -65 72 -65 4 0 8 -7
8 -15 0 -8 6 -15 14 -15 8 0 17 -6 20 -12 5 -10 7 -10 12 -1 6 13 35 6 46 -11
14 -20 8 -64 -8 -70 -26 -10 -63 -7 -102 9 -28 11 -33 12 -19 1 9 -7 42 -21
71 -30 30 -10 67 -29 81 -42 24 -22 27 -30 21 -67 -4 -23 -13 -52 -21 -64 -14
-21 -14 -22 18 -16 27 4 39 -1 79 -36 25 -23 65 -64 88 -92 l43 -50 -24 -27
c-23 -26 -22 -25 8 2 18 16 29 34 26 40 -4 6 13 -5 38 -25 37 -31 44 -43 44
-72 0 -19 3 -33 8 -30 4 2 7 15 7 28 0 13 4 27 10 30 12 8 54 -36 69 -73 9
-22 26 -32 80 -51 162 -55 282 -158 298 -254 4 -29 8 -36 13 -23 5 15 13 10
50 -30 40 -43 42 -48 24 -56 -15 -6 -13 -7 9 -4 22 3 31 -2 42 -25 8 -15 20
-31 27 -35 6 -4 4 3 -5 17 -20 28 -24 90 -5 71 7 -7 36 -12 65 -12 41 0 53 -3
53 -16 0 -21 21 -14 160 57 96 49 125 59 167 59 67 0 85 -19 59 -64 -16 -28
-13 -27 29 14 48 47 105 147 105 185 0 12 -9 30 -20 40 -40 37 -134 4 -261
-90 -120 -90 -211 -105 -316 -51 -62 31 -99 71 -176 186 -70 106 -130 159
-219 191 -32 12 -56 25 -53 29 2 3 -16 16 -40 28 -55 26 -60 20 -7 -8 25 -14
29 -19 12 -14 -30 7 -106 50 -115 64 -7 12 7 13 21 2 5 -4 -15 15 -44 41 -29
27 -90 106 -136 176 -104 159 -176 226 -395 373 -91 61 -172 117 -178 126 -7
8 -25 17 -39 18 -15 2 -30 7 -33 11 -3 4 -27 18 -52 31 -26 13 -61 38 -79 57
l-32 33 64 -13 c35 -8 86 -24 113 -36 58 -26 43 -21 174 -48 57 -12 108 -20
115 -17 6 2 5 5 -4 6 -32 4 108 29 164 29 47 1 75 -6 139 -35 78 -36 83 -36
121 -23 47 17 60 39 21 39 -25 0 -85 25 -85 36 0 2 13 -2 30 -11 18 -9 52 -14
92 -13 l63 1 -70 6 c-38 3 -76 10 -83 14 -7 5 -24 10 -38 12 -14 1 -31 8 -37
15 -9 10 -9 11 1 6 6 -4 12 -4 12 -1 0 12 -86 45 -121 45 -19 0 -69 -12 -110
-26 -95 -32 -220 -32 -266 2 -22 16 -33 18 -55 10 -54 -19 -194 50 -172 85 3
5 -2 6 -10 3 -9 -3 -16 -2 -16 4 0 23 131 30 153 7 18 -17 31 -7 16 12 -9 11
-1 13 45 13 61 0 70 10 31 36 -22 14 -33 15 -92 4 -38 -7 -79 -17 -93 -22 -20
-6 -15 2 23 38 29 27 54 44 62 40 8 -3 14 0 12 7 -1 7 6 11 15 11 10 -1 15 3
11 9 -4 6 0 8 11 4 11 -5 15 -3 10 5 -5 8 -1 9 12 4 10 -4 16 -4 12 -1 -3 4
30 31 75 62 50 33 132 105 207 182 114 117 133 132 222 176 97 48 137 54 124
17 -3 -9 5 -4 20 13 l26 29 -4 -42 c-2 -23 -2 -42 -1 -42 7 0 52 100 68 150
46 141 88 189 265 295 218 130 310 199 353 264 23 35 30 39 89 46 34 4 73 8
86 9 12 0 22 5 22 9 0 5 5 5 10 2 6 -3 10 -1 10 5 0 6 5 8 10 5 6 -3 10 -1 10
5 0 6 4 9 9 6 5 -3 12 1 15 10 4 9 13 14 22 10 8 -3 12 -2 9 4 -3 5 15 42 41
82 25 40 39 66 30 59 -9 -7 -16 -10 -16 -5 -1 5 -17 -9 -36 -31 -20 -22 -33
-33 -29 -25 4 10 2 9 -8 -2 -8 -10 -17 -15 -20 -11 -4 3 -7 2 -7 -3 0 -5 -8
-10 -17 -11 -56 -3 -195 -24 -215 -32 -32 -12 -65 -51 -133 -154 -64 -99 -102
-131 -280 -237 -105 -62 -174 -121 -280 -241 -25 -27 -78 -66 -135 -99 -198
-111 -257 -158 -294 -234 -30 -62 -60 -96 -85 -96 -10 0 -24 -7 -31 -15 -7 -8
-52 -40 -101 -71 -69 -43 -95 -55 -114 -50 -17 4 -25 2 -25 -6 0 -7 -9 -21
-20 -33 -10 -11 -36 -39 -56 -63 -20 -23 -55 -57 -78 -75 -37 -29 -39 -29 -24
-7 10 14 45 71 79 128 62 101 79 119 79 85 1 -12 7 -7 18 14 9 18 21 32 25 32
5 0 32 37 60 83 39 62 62 88 92 103 25 14 49 38 68 70 16 28 46 70 67 95 20
25 65 88 100 140 35 52 78 115 97 140 28 37 24 34 -22 -15 -31 -33 -79 -94
-108 -135 -28 -41 -72 -103 -99 -138 -27 -35 -46 -68 -43 -73 4 -5 2 -9 -4 -9
-5 0 -13 9 -16 20 -9 29 -29 25 -59 -12 -15 -18 -38 -46 -52 -63 l-25 -30 17
35 c9 19 30 54 45 77 16 23 29 46 29 51 0 15 136 335 161 378 30 53 114 156
138 171 31 19 54 6 49 -28 -3 -16 -3 -29 -1 -29 12 0 44 103 53 171 11 92 11
91 51 120 l31 22 -15 -29 c-15 -29 -32 -94 -25 -94 2 0 23 9 46 20 53 26 68
25 86 -2 29 -45 -4 -143 -77 -233 l-40 -50 57 55 c68 66 85 99 130 258 40 139
60 182 86 189 18 5 30 41 30 89 0 30 -11 30 -36 2 l-19 -23 24 20 c29 23 21 7
-22 -48 -31 -40 -47 -44 -26 -6 11 22 10 21 -21 -5 -26 -21 -139 -85 -202
-114 -33 -15 37 148 90 210 16 19 26 41 24 52 -5 22 -68 -85 -147 -249 -64
-133 -87 -165 -115 -158 -11 3 -20 9 -20 12 0 4 -6 8 -14 8 -8 0 -12 -6 -9
-13 2 -6 -16 -49 -41 -95 -71 -133 -185 -399 -261 -612 -15 -44 -31 -74 -34
-68 -4 5 -20 -28 -35 -74 -16 -47 -35 -90 -42 -96 -7 -6 -25 -31 -39 -55 -30
-51 -61 -61 -51 -16 3 15 16 90 28 167 20 120 24 134 29 100 5 -30 6 -26 4 18
-2 32 3 98 11 145 8 53 14 161 14 273 0 186 -23 546 -39 605 -9 33 16 259 45
399 45 220 76 299 160 403 l27 32 -24 0 c-12 0 -33 -10 -46 -22 -13 -12 -23
-17 -23 -11 0 11 -43 33 -66 33 -12 0 -9 -10 11 -43z m1745 -891 c0 -2 -8 -10
-17 -17 -16 -13 -17 -12 -4 4 13 16 21 21 21 13z m-1863 -168 c-3 -7 -5 -2 -5
12 0 14 2 19 5 13 2 -7 2 -19 0 -25z m1480 -95 c-27 -28 -42 -28 -32 -1 6 16
46 39 54 31 3 -2 -7 -16 -22 -30z m-1223 -688 c9 -25 -5 -47 -69 -110 -60 -58
-62 -59 -48 -25 29 68 85 150 104 150 4 0 9 -7 13 -15z m-753 -261 c4 -21 6
-40 5 -41 -5 -6 -86 82 -86 93 0 11 7 11 37 0 33 -11 39 -18 44 -52z m2457
-1659 c12 -3 27 -15 33 -26 10 -19 9 -20 -11 -9 -26 14 -102 15 -145 1 -16 -5
-39 -12 -50 -15 -11 -4 11 9 50 29 38 19 76 33 85 31 8 -3 25 -7 38 -11z"/>
<path d="M3062 5044 c-110 -102 -149 -174 -67 -125 45 26 70 28 61 4 -10 -24
-4 -17 45 57 24 36 57 82 73 103 l28 37 -28 0 c-22 0 -49 -19 -112 -76z"/>
<path d="M3266 5109 c2 -5 -5 -13 -16 -19 -11 -6 -18 -15 -15 -19 3 -5 -2 -11
-10 -15 -8 -3 -15 -12 -15 -19 0 -8 -7 -20 -15 -27 -21 -17 -115 -159 -115
-173 0 -6 35 24 79 66 43 42 83 77 88 77 6 0 8 -12 6 -27 -2 -16 5 -5 15 22
10 28 29 69 40 92 12 23 22 45 22 48 0 3 -15 5 -34 3 -19 -1 -33 -5 -30 -9z"/>
<path d="M3466 5103 c-3 -10 -10 -49 -17 -88 -6 -38 -16 -78 -21 -89 -7 -13
-7 -16 1 -12 18 11 39 58 60 135 19 69 19 71 1 71 -10 0 -21 -8 -24 -17z"/>
<path d="M3575 5048 c-9 -90 -28 -185 -54 -263 -30 -92 -78 -220 -91 -245 -8
-16 -9 -20 -1 -15 36 21 141 285 186 467 15 57 28 109 30 116 3 8 -7 12 -29
12 l-34 0 -7 -72z"/>
<path d="M4278 5070 c-38 -27 -68 -52 -68 -56 0 -3 4 -2 10 1 5 3 15 1 22 -6
10 -9 -4 -29 -67 -93 -44 -45 -96 -110 -115 -145 -19 -34 -43 -73 -53 -87 -22
-29 -42 -33 -27 -4 6 11 9 20 7 20 -2 0 -25 -35 -50 -77 -25 -43 -71 -103
-102 -133 -32 -30 -55 -48 -51 -40 4 8 -9 -2 -28 -24 -19 -21 -35 -41 -34 -45
2 -19 -3 -31 -11 -26 -5 3 -13 0 -17 -6 -4 -8 -3 -9 4 -5 8 5 12 -5 12 -33 0
-22 5 -43 11 -47 6 -3 40 22 76 57 36 35 62 58 58 50 -6 -10 -4 -12 4 -7 7 5
10 14 8 20 -3 7 1 13 9 13 10 0 12 -7 8 -21 -12 -43 -56 -132 -94 -193 -22
-34 -40 -65 -40 -68 0 -11 -92 -160 -113 -182 -11 -13 -16 -23 -10 -23 19 0
90 86 173 211 46 68 102 149 126 179 33 42 49 77 70 150 15 52 31 103 36 113
5 9 6 17 3 17 -7 0 -48 -93 -73 -170 -23 -67 -59 -136 -68 -127 -2 2 11 48 31
102 19 53 32 101 29 106 -3 5 -1 9 5 9 6 0 7 7 4 17 -4 9 -2 14 3 11 5 -4 10
4 10 17 2 35 52 137 64 130 5 -3 7 0 4 8 -3 8 0 18 7 23 8 5 10 3 4 -6 -5 -9
-4 -11 4 -6 6 4 8 12 5 18 -4 6 4 20 17 30 13 11 17 16 9 12 -8 -4 8 13 35 39
28 25 44 46 36 47 -8 0 0 11 19 25 44 32 54 32 15 0 -39 -32 -29 -31 29 1 50
28 58 38 24 30 -15 -4 -12 -1 7 9 17 8 38 14 47 15 9 0 28 5 41 11 18 8 30 8
47 -1 l22 -12 -28 -31 c-28 -30 -27 -30 8 2 21 19 36 37 33 39 -2 2 5 12 15
21 16 13 100 154 100 167 0 2 -44 4 -97 4 l-98 0 -67 -50z m-157 -273 l-24
-22 19 27 c10 14 21 24 23 22 3 -3 -6 -15 -18 -27z m-203 -312 c-6 -14 -13
-23 -15 -21 -5 5 15 46 22 46 3 0 -1 -11 -7 -25z"/>
<path d="M4552 5108 c-6 -7 -21 -39 -35 -70 l-26 -57 47 18 c82 32 156 45 181
31 14 -7 20 -17 17 -26 -7 -17 29 6 112 73 l53 43 -169 0 c-124 0 -172 -3
-180 -12z"/>
<path d="M4864 5059 c-38 -34 -106 -86 -151 -116 -46 -30 -83 -56 -83 -58 0
-6 84 16 111 30 34 18 42 19 33 3 -4 -7 18 11 47 40 30 28 55 62 56 74 2 26
16 41 45 45 21 3 21 2 -7 -29 -16 -18 -6 -11 23 17 28 27 52 51 52 52 0 2 -13
3 -29 3 -20 0 -47 -17 -97 -61z"/>
<path d="M5080 5089 c-19 -16 -41 -28 -49 -26 -9 1 -16 -3 -16 -9 0 -6 -34
-39 -77 -72 -125 -101 -218 -213 -232 -277 l-7 -30 21 25 c11 14 20 27 20 30
0 3 50 53 111 110 62 57 107 94 100 83 -11 -21 -10 -22 18 -12 17 6 35 17 42
25 6 8 20 14 31 14 10 0 33 13 49 28 28 26 30 33 27 84 l-3 56 -35 -29z"/>
<path d="M2221 5094 c0 -11 3 -14 6 -6 3 7 2 16 -1 19 -3 4 -6 -2 -5 -13z"/>
<path d="M2402 5080 c0 -14 2 -19 5 -12 2 6 2 18 0 25 -3 6 -5 1 -5 -13z"/>
<path d="M3651 5084 c0 -11 3 -14 6 -6 3 7 2 16 -1 19 -3 4 -6 -2 -5 -13z"/>
<path d="M1410 5060 c12 -16 24 -30 26 -30 3 0 -4 14 -16 30 -12 17 -24 30
-26 30 -3 0 4 -13 16 -30z"/>
<path d="M3721 5064 c0 -11 3 -14 6 -6 3 7 2 16 -1 19 -3 4 -6 -2 -5 -13z"/>
<path d="M2131 5054 c0 -11 3 -14 6 -6 3 7 2 16 -1 19 -3 4 -6 -2 -5 -13z"/>
<path d="M2231 5054 c0 -11 3 -14 6 -6 3 7 2 16 -1 19 -3 4 -6 -2 -5 -13z"/>
<path d="M2442 5040 c0 -14 2 -19 5 -12 2 6 2 18 0 25 -3 6 -5 1 -5 -13z"/>
<path d="M3641 5034 c0 -11 3 -14 6 -6 3 7 2 16 -1 19 -3 4 -6 -2 -5 -13z"/>
<path d="M2412 5020 c0 -14 2 -19 5 -12 2 6 2 18 0 25 -3 6 -5 1 -5 -13z"/>
<path d="M1450 5001 c5 -11 15 -23 21 -27 6 -3 3 5 -6 20 -20 30 -30 35 -15 7z"/>
<path d="M2142 4980 c0 -14 2 -19 5 -12 2 6 2 18 0 25 -3 6 -5 1 -5 -13z"/>
<path d="M3902 4955 c-34 -69 -96 -131 -151 -150 -58 -19 -117 -58 -132 -88
l-11 -22 21 23 c37 38 42 24 12 -30 -34 -60 -122 -248 -117 -248 2 0 15 19 29
43 39 64 84 109 171 168 44 30 92 71 106 91 15 21 30 35 34 33 3 -3 4 -2 1 2
-3 3 -1 11 4 17 16 21 69 206 59 206 -2 0 -14 -20 -26 -45z"/>
<path d="M450 4976 c0 -2 8 -10 18 -17 15 -13 16 -12 3 4 -13 16 -21 21 -21
13z"/>
<path d="M2251 4964 c0 -11 3 -14 6 -6 3 7 2 16 -1 19 -3 4 -6 -2 -5 -13z"/>
<path d="M2421 4964 c0 -11 3 -14 6 -6 3 7 2 16 -1 19 -3 4 -6 -2 -5 -13z"/>
<path d="M5043 4896 c-114 -127 -210 -253 -237 -309 -13 -29 -36 -97 -50 -152
-34 -126 -95 -254 -147 -306 -23 -23 -39 -43 -36 -45 2 -2 33 26 68 63 80 85
121 166 158 313 33 131 59 194 93 230 13 14 44 54 68 90 24 36 71 93 103 128
33 34 58 64 56 65 -2 2 -37 -33 -76 -77z"/>
<path d="M1 4960 c0 -21 48 -109 49 -90 0 12 4 11 15 -4 8 -11 15 -16 15 -10
-1 16 -27 44 -34 37 -4 -4 -5 -1 -2 7 4 8 -5 29 -19 45 -15 18 -24 24 -24 15z"/>
<path d="M1505 4923 c15 -24 30 -43 32 -43 7 0 -31 61 -46 73 -8 7 -2 -7 14
-30z"/>
<path d="M4124 4928 l-19 -23 23 19 c21 18 27 26 19 26 -2 0 -12 -10 -23 -22z"/>
<path d="M2262 4920 c0 -14 2 -19 5 -12 2 6 2 18 0 25 -3 6 -5 1 -5 -13z"/>
<path d="M2431 4914 c0 -11 3 -14 6 -6 3 7 2 16 -1 19 -3 4 -6 -2 -5 -13z"/>
<path d="M2132 4915 c0 -5 6 -26 13 -45 7 -19 14 -28 14 -20 0 8 -6 29 -14 45
-7 17 -13 26 -13 20z"/>
<path d="M3242 4895 c0 -16 2 -22 5 -12 2 9 2 23 0 30 -3 6 -5 -1 -5 -18z"/>
<path d="M4348 4913 c6 -2 18 -2 25 0 6 3 1 5 -13 5 -14 0 -19 -2 -12 -5z"/>
<path d="M4288 4903 c6 -2 18 -2 25 0 6 3 1 5 -13 5 -14 0 -19 -2 -12 -5z"/>
<path d="M630 4875 c13 -14 26 -25 28 -25 3 0 -5 11 -18 25 -13 14 -26 25 -28
25 -3 0 5 -11 18 -25z"/>
<path d="M4799 4883 c-13 -16 -12 -17 4 -4 16 13 21 21 13 21 -2 0 -10 -8 -17
-17z"/>
<path d="M3405 4819 c-54 -62 -92 -125 -82 -135 7 -7 108 89 121 115 11 23 29
92 23 90 -1 0 -29 -32 -62 -70z"/>
<path d="M4395 4864 c-17 -14 -24 -23 -17 -19 27 14 6 -63 -32 -116 -6 -8 4 0
22 20 27 29 69 127 59 137 -1 2 -16 -8 -32 -22z"/>
<path d="M2272 4860 c0 -14 2 -19 5 -12 2 6 2 18 0 25 -3 6 -5 1 -5 -13z"/>
<path d="M2441 4864 c0 -11 3 -14 6 -6 3 7 2 16 -1 19 -3 4 -6 -2 -5 -13z"/>
<path d="M1593 4769 c29 -58 54 -105 56 -103 5 5 -73 164 -92 189 -9 11 7 -28
36 -86z"/>
<path d="M3219 4810 c-8 -27 -12 -47 -8 -44 10 6 31 72 27 83 -2 5 -10 -12
-19 -39z"/>
<path d="M4544 4798 c-26 -35 -62 -79 -81 -98 -32 -34 -34 -41 -42 -140 -5
-58 -12 -114 -17 -125 -8 -19 -7 -19 16 -4 34 21 70 95 70 141 0 86 33 184 87
256 13 17 22 32 19 32 -3 0 -26 -28 -52 -62z"/>
<path d="M2572 4805 c0 -16 2 -22 5 -12 2 9 2 23 0 30 -3 6 -5 -1 -5 -18z"/>
<path d="M104 4795 c8 -17 24 -39 37 -50 23 -19 22 -19 -1 11 -14 17 -31 40
-38 50 -7 11 -6 7 2 -11z"/>
<path d="M2282 4800 c0 -14 2 -19 5 -12 2 6 2 18 0 25 -3 6 -5 1 -5 -13z"/>
<path d="M3072 4795 c0 -16 2 -22 5 -12 2 9 2 23 0 30 -3 6 -5 -1 -5 -18z"/>
<path d="M5098 4782 c-7 -10 -36 -37 -65 -61 -54 -45 -96 -99 -108 -141 -6
-19 12 -6 74 53 46 42 91 77 102 77 16 0 19 7 19 45 0 50 -3 53 -22 27z"/>
<path d="M3228 4733 c-10 -24 -22 -83 -28 -132 -5 -49 -12 -98 -15 -108 -3
-10 6 5 20 33 29 60 47 147 43 207 l-3 42 -17 -42z"/>
<path d="M2634 4655 c0 -55 1 -76 3 -47 2 29 2 74 0 100 -2 26 -3 2 -3 -53z"/>
<path d="M2861 4734 c0 -11 3 -14 6 -6 3 7 2 16 -1 19 -3 4 -6 -2 -5 -13z"/>
<path d="M2472 4720 c0 -14 2 -19 5 -12 2 6 2 18 0 25 -3 6 -5 1 -5 -13z"/>
<path d="M4426 4725 c-9 -26 -7 -32 5 -12 6 10 9 21 6 23 -2 3 -7 -2 -11 -11z"/>
<path d="M213 4713 c9 -2 23 -2 30 0 6 3 -1 5 -18 5 -16 0 -22 -2 -12 -5z"/>
<path d="M3128 4713 c7 -3 16 -2 19 1 4 3 -2 6 -13 5 -11 0 -14 -3 -6 -6z"/>
<path d="M30 4680 c6 -11 13 -20 16 -20 2 0 0 9 -6 20 -6 11 -13 20 -16 20 -2
0 0 -9 6 -20z"/>
<path d="M2851 4684 c0 -11 3 -14 6 -6 3 7 2 16 -1 19 -3 4 -6 -2 -5 -13z"/>
<path d="M4392 4654 c-32 -48 -102 -91 -165 -99 -72 -10 -131 -38 -173 -82
-20 -21 -36 -39 -35 -41 1 -1 -5 -15 -14 -31 l-15 -29 46 25 c34 19 66 27 119
31 66 4 76 8 116 42 39 33 157 206 147 215 -2 2 -13 -12 -26 -31z"/>
<path d="M2481 4664 c0 -11 3 -14 6 -6 3 7 2 16 -1 19 -3 4 -6 -2 -5 -13z"/>
<path d="M3121 4654 c0 -11 3 -14 6 -6 3 7 2 16 -1 19 -3 4 -6 -2 -5 -13z"/>
<path d="M4026 4645 c-9 -26 -7 -32 5 -12 6 10 9 21 6 23 -2 3 -7 -2 -11 -11z"/>
<path d="M73 4624 c39 -43 34 -48 -23 -19 l-50 25 0 -128 0 -128 84 -62 c105
-78 149 -127 143 -157 -3 -17 0 -22 11 -18 11 5 13 18 9 60 -5 49 -14 65 -90
166 -47 62 -83 114 -80 117 3 3 38 -30 78 -72 39 -43 77 -78 84 -78 6 0 19
-13 30 -30 10 -16 20 -27 24 -24 14 14 183 -121 327 -262 269 -264 306 -291
490 -369 63 -27 138 -63 165 -80 46 -29 105 -87 105 -103 1 -45 32 -197 45
-222 10 -20 14 -42 11 -59 -5 -18 -4 -22 3 -12 8 13 19 13 78 2 168 -33 255
-80 357 -192 27 -30 71 -77 98 -106 28 -28 47 -57 43 -62 -4 -7 3 -11 17 -11
13 0 47 -11 76 -25 28 -13 52 -21 52 -18 0 4 7 -2 15 -13 8 -10 15 -15 15 -10
0 4 16 -4 36 -19 19 -15 38 -25 41 -21 3 3 14 -5 24 -17 19 -22 19 -22 2 10
-10 17 -20 27 -24 22 -3 -6 -13 0 -21 13 -9 13 -47 55 -85 93 -60 61 -203 251
-203 270 0 3 6 3 13 -1 7 -4 9 -3 4 2 -5 5 -14 9 -20 9 -5 0 -12 6 -15 14 -3
9 0 11 9 6 8 -5 11 -4 6 1 -5 5 -14 9 -20 9 -7 0 -11 8 -11 18 1 9 -2 14 -7
12 -11 -7 -52 73 -44 85 3 6 1 10 -5 10 -6 0 -9 4 -6 9 4 5 3 11 -1 13 -5 1
-27 42 -50 89 -24 48 -56 101 -72 118 -16 17 -31 37 -34 45 -3 8 -39 42 -80
74 -83 65 -247 153 -389 208 -205 79 -269 123 -364 250 -78 104 -151 166 -312
266 -168 104 -392 231 -409 231 -7 0 -10 4 -7 9 5 7 -10 12 -29 9 -5 -1 -6 2
-3 7 3 5 -11 24 -32 43 -33 30 -34 31 -9 3z m-33 -114 c8 -5 11 -10 5 -10 -5
0 -17 5 -25 10 -8 5 -10 10 -5 10 6 0 17 -5 25 -10z m565 -331 c17 -19 69 -71
115 -115 47 -45 105 -103 130 -129 l45 -48 -52 29 c-109 60 -173 123 -261 254
-79 120 -77 121 23 9z m325 -229 c6 -11 8 -20 6 -20 -3 0 -10 9 -16 20 -6 11
-8 20 -6 20 3 0 10 -9 16 -20z m64 -72 c41 -47 47 -68 14 -46 -25 17 -73 88
-59 88 5 0 26 -19 45 -42z m384 -280 c2 -4 9 -8 15 -8 6 0 27 -11 48 -25 32
-23 37 -32 42 -80 7 -73 52 -171 88 -192 59 -35 -6 -46 -72 -12 -50 25 -84 93
-94 189 -9 77 -15 92 -64 144 l-36 39 35 -24 c19 -13 37 -27 38 -31z m207
-132 c52 -39 205 -187 205 -198 0 -5 -14 -1 -32 8 -17 9 -58 19 -90 22 -101 9
-159 69 -174 181 l-7 53 29 -18 c16 -10 47 -32 69 -48z"/>
<path d="M2573 4615 c0 -22 2 -30 4 -17 2 12 2 30 0 40 -3 9 -5 -1 -4 -23z"/>
<path d="M2843 4560 c0 -47 2 -66 4 -42 2 23 2 61 0 85 -2 23 -4 4 -4 -43z"/>
<path d="M2240 4610 c6 -11 13 -20 16 -20 2 0 0 9 -6 20 -6 11 -13 20 -16 20
-2 0 0 -9 6 -20z"/>
<path d="M2491 4604 c0 -11 3 -14 6 -6 3 7 2 16 -1 19 -3 4 -6 -2 -5 -13z"/>
<path d="M4049 4603 c-13 -16 -12 -17 4 -4 16 13 21 21 13 21 -2 0 -10 -8 -17
-17z"/>
<path d="M2501 4544 c0 -11 3 -14 6 -6 3 7 2 16 -1 19 -3 4 -6 -2 -5 -13z"/>
<path d="M2581 4514 c0 -11 3 -14 6 -6 3 7 2 16 -1 19 -3 4 -6 -2 -5 -13z"/>
<path d="M3399 4493 c-13 -16 -12 -17 4 -4 16 13 21 21 13 21 -2 0 -10 -8 -17
-17z"/>
<path d="M2511 4484 c0 -11 3 -14 6 -6 3 7 2 16 -1 19 -3 4 -6 -2 -5 -13z"/>
<path d="M2591 4464 c0 -11 3 -14 6 -6 3 7 2 16 -1 19 -3 4 -6 -2 -5 -13z"/>
<path d="M4613 4415 c-46 -37 -94 -55 -198 -79 -161 -37 -301 -139 -365 -266
-52 -104 -92 -136 -198 -159 -83 -17 -109 -36 -178 -131 -51 -69 -83 -102
-145 -145 -86 -60 -165 -136 -236 -227 -25 -32 -50 -55 -56 -51 -6 3 -7 1 -3
-5 8 -13 -43 -94 -54 -87 -4 3 -7 -3 -6 -13 0 -9 -4 -16 -10 -15 -7 1 -10 -6
-7 -18 5 -19 12 -14 57 37 28 32 98 104 156 160 84 82 106 98 108 83 2 -11 -2
-28 -10 -37 -12 -15 -11 -16 5 -3 10 8 27 31 37 50 19 39 125 137 184 172 49
29 45 34 -6 8 l-43 -21 60 56 c33 30 64 55 69 56 5 0 37 14 72 31 69 34 100
66 167 169 31 47 55 71 86 87 24 12 54 32 66 43 28 27 75 40 150 42 58 1 59 1
16 7 l-44 6 49 14 c142 38 246 108 276 184 9 23 21 41 26 40 5 -1 12 9 15 22
2 14 4 25 3 24 0 0 -20 -15 -43 -34z"/>
<path d="M2521 4424 c0 -11 3 -14 6 -6 3 7 2 16 -1 19 -3 4 -6 -2 -5 -13z"/>
<path d="M2862 4400 c0 -19 2 -27 5 -17 2 9 2 25 0 35 -3 9 -5 1 -5 -18z"/>
<path d="M4832 4393 c-17 -57 -15 -67 15 -103 l27 -32 19 37 19 37 -23 25
c-13 13 -28 36 -34 50 l-11 26 -12 -40z"/>
<path d="M5084 4414 c-18 -14 -18 -14 6 -3 31 14 36 19 24 19 -6 0 -19 -7 -30
-16z"/>
<path d="M3241 4371 c-16 -37 -51 -69 -128 -115 -46 -27 -72 -52 -102 -98 -46
-68 -51 -84 -20 -67 12 6 32 9 46 6 17 -3 28 1 36 14 29 47 41 4 21 -74 -9
-34 -21 -71 -26 -81 -6 -11 -12 -34 -13 -51 -1 -16 -5 -48 -8 -70 -4 -22 -4
-31 -1 -20 40 141 88 263 147 375 38 74 77 145 85 158 8 12 10 22 6 22 -5 0
-17 -15 -28 -33 -23 -40 -33 -20 -11 23 9 18 14 34 12 36 -2 3 -10 -8 -16 -25z"/>
<path d="M5050 4374 c-60 -34 -82 -55 -150 -144 -65 -86 -142 -160 -189 -185
-18 -9 -91 -36 -163 -61 -71 -24 -152 -56 -179 -70 -27 -13 -55 -22 -61 -18
-6 4 -8 3 -5 -3 4 -6 0 -14 -9 -17 -10 -4 -13 -2 -9 7 4 6 1 5 -7 -3 -7 -8
-20 -16 -28 -18 -8 -2 -20 -10 -26 -17 -6 -8 -14 -12 -17 -8 -4 3 -9 -2 -13
-11 -3 -9 -11 -13 -17 -9 -5 3 -7 1 -4 -4 4 -6 -13 -27 -38 -48 -47 -38 -100
-116 -93 -137 2 -6 29 19 59 55 29 37 86 89 124 116 86 59 201 121 227 121 20
0 192 71 237 97 22 13 22 11 -4 -11 -16 -15 -59 -40 -95 -57 -119 -56 -161
-88 -186 -143 -27 -57 -33 -91 -11 -64 6 9 64 44 127 78 148 80 207 126 290
225 91 109 205 199 270 212 34 6 37 -2 13 -31 -18 -21 -18 -21 5 -2 19 17 22
29 22 98 0 89 -2 91 -70 52z"/>
<path d="M2532 4360 c0 -14 2 -19 5 -12 2 6 2 18 0 25 -3 6 -5 1 -5 -13z"/>
<path d="M2890 4372 c0 -6 -6 -17 -13 -24 -8 -7 -16 -29 -20 -48 -5 -31 -3
-29 20 18 14 29 22 56 19 59 -3 4 -6 1 -6 -5z"/>
<path d="M1750 4354 c0 -6 7 -19 16 -30 14 -18 14 -18 3 6 -14 31 -19 36 -19
24z"/>
<path d="M685 4298 c22 -18 63 -53 91 -78 48 -43 48 -42 -6 10 -31 31 -72 66
-91 79 -29 20 -29 18 6 -11z"/>
<path d="M1106 4285 c4 -8 11 -15 16 -15 6 0 5 6 -2 15 -7 8 -14 15 -16 15 -2
0 -1 -7 2 -15z"/>
<path d="M1797 4272 c9 -18 38 -51 62 -75 l45 -42 -44 50 c-25 28 -53 61 -63
75 -17 24 -17 24 0 -8z"/>
<path d="M4555 4274 c-9 -15 -12 -23 -6 -20 11 7 35 46 28 46 -3 0 -12 -12
-22 -26z"/>
<path d="M2906 4239 c-25 -42 -16 -44 11 -3 12 19 19 34 15 34 -4 0 -16 -14
-26 -31z"/>
<path d="M3711 4234 c0 -11 3 -14 6 -6 3 7 2 16 -1 19 -3 4 -6 -2 -5 -13z"/>
<path d="M1145 4231 c-3 -5 -1 -12 5 -16 5 -3 10 -3 10 1 0 4 10 -1 23 -12 20
-17 20 -16 -2 9 -28 30 -28 31 -36 18z"/>
<path d="M4499 4213 c-13 -16 -12 -17 4 -4 9 7 17 15 17 17 0 8 -8 3 -21 -13z"/>
<path d="M2833 4165 c0 -33 2 -45 4 -27 2 18 2 45 0 60 -2 15 -4 0 -4 -33z"/>
<path d="M1190 4165 c19 -19 36 -35 39 -35 3 0 -10 16 -29 35 -19 19 -36 35
-39 35 -3 0 10 -16 29 -35z"/>
<path d="M4430 4180 c-25 -11 -39 -19 -32 -19 16 -1 82 26 82 33 0 4 -1 6 -2
5 -2 -1 -23 -9 -48 -19z"/>
<path d="M0 4121 c0 -47 4 -63 19 -73 25 -18 150 -134 132 -123 -10 5 -12 4
-7 -4 4 -6 12 -9 17 -5 6 3 36 -12 67 -33 31 -22 84 -54 117 -72 33 -18 84
-52 114 -75 l54 -41 -29 -6 -29 -7 27 -1 c18 -1 37 -13 57 -38 36 -43 37 -50
14 -57 -12 -3 -9 -4 7 -4 14 1 32 -2 40 -5 8 -3 22 -8 30 -11 8 -4 -17 -4 -56
-2 -78 5 -221 53 -333 112 -58 30 -61 31 -41 9 13 -13 26 -22 30 -20 5 3 11
-2 14 -11 4 -9 9 -14 13 -11 3 4 12 -1 20 -11 10 -11 12 -12 8 -2 -4 10 -2 9
8 -2 8 -10 17 -15 20 -11 4 3 7 2 7 -4 0 -16 105 -59 204 -84 66 -16 85 -24
70 -30 -28 -11 -53 -10 -29 2 16 7 13 8 -12 4 -18 -2 -33 -1 -33 4 0 4 -24 13
-54 20 -30 7 -92 30 -137 52 -82 40 -219 133 -219 149 0 4 -15 23 -32 42 -18
18 -43 47 -55 63 l-22 30 0 -31 c-1 -26 13 -45 79 -113 44 -44 77 -81 74 -81
-10 0 -75 41 -117 73 l-38 29 3 -35 c1 -20 6 -33 10 -31 4 3 8 0 8 -6 0 -6 4
-8 10 -5 5 3 10 1 10 -5 0 -6 4 -9 9 -6 5 4 11 3 13 -2 5 -12 335 -152 359
-152 11 0 18 -4 15 -9 -4 -5 3 -7 13 -4 35 9 183 -35 226 -67 60 -45 121 -74
218 -105 124 -38 149 -62 217 -217 47 -107 62 -131 115 -183 77 -75 230 -168
263 -160 17 4 22 2 16 -6 -5 -9 1 -10 20 -5 16 4 25 3 22 -3 -3 -5 11 -12 31
-16 52 -10 76 -24 69 -41 -5 -12 -1 -14 15 -9 16 5 19 4 14 -5 -5 -9 -2 -10
14 -5 11 3 21 2 21 -3 0 -6 9 -8 20 -5 11 3 20 0 20 -6 0 -6 7 -8 17 -4 10 4
14 2 10 -4 -4 -6 4 -13 17 -17 13 -3 47 -24 75 -46 64 -51 88 -60 159 -61 l57
-1 -45 -10 c-65 -13 -116 -4 -202 37 -87 42 -158 54 -330 57 l-116 3 -69 66
c-70 67 -132 100 -255 134 -76 21 -88 35 -88 98 0 112 -91 229 -258 332 -59
37 -143 91 -187 121 -108 75 -226 138 -370 200 -182 78 -166 78 -163 -3 l3
-68 109 -57 c98 -51 109 -55 113 -37 6 21 33 25 64 9 39 -22 16 -115 -40 -163
-52 -43 -85 -35 -224 57 l-27 18 0 -66 0 -66 47 -30 c70 -45 125 -42 194 10
60 45 85 49 121 20 34 -26 51 -71 46 -120 -2 -22 -2 -40 0 -40 9 0 42 89 42
113 0 41 -26 86 -76 133 -24 23 -44 48 -44 57 0 32 60 0 215 -117 88 -67 179
-134 201 -149 23 -15 52 -39 65 -53 19 -20 20 -27 10 -37 -10 -9 -15 -9 -18
-1 -2 7 -13 9 -25 6 -12 -3 -19 -1 -15 4 3 6 -32 9 -87 8 -105 -2 -142 -15
-265 -91 -151 -94 -225 -110 -343 -73 -34 11 -64 20 -65 20 -2 0 -3 -41 -3
-91 l0 -90 33 -13 c17 -7 61 -19 96 -26 73 -15 117 -47 129 -93 l9 -32 13 42
c16 51 8 83 -30 127 l-31 34 30 7 c41 9 96 -3 166 -36 95 -44 158 -55 211 -34
24 9 53 28 64 42 26 34 26 49 -1 22 -18 -18 -30 -21 -88 -17 -52 3 -87 14
-167 51 -56 26 -112 47 -125 48 -18 0 -14 4 16 13 22 7 77 34 121 60 102 59
158 76 248 76 74 -1 135 -17 165 -44 10 -9 29 -16 44 -16 19 0 25 -4 21 -15
-3 -8 3 -31 15 -50 12 -20 21 -38 21 -39 0 -2 -20 -6 -45 -9 -68 -10 -99 -30
-159 -106 -52 -65 -119 -112 -157 -110 -9 0 -7 4 6 10 15 7 8 8 -27 5 -32 -2
-45 0 -41 7 4 6 0 8 -10 4 -10 -4 -17 -1 -17 5 0 6 -3 9 -6 5 -3 -3 -33 11
-67 30 -53 32 -133 63 -159 63 -21 0 16 -42 55 -61 23 -12 70 -41 105 -65 35
-25 61 -40 57 -34 -3 6 0 7 9 4 9 -3 14 -10 11 -14 -3 -5 0 -12 6 -16 8 -4 9
-3 5 4 -5 9 7 12 39 12 56 0 108 25 155 75 64 68 109 95 158 95 79 0 283 -59
329 -96 l28 -22 -20 -23 c-11 -13 2 -6 28 16 73 58 79 30 7 -30 -95 -79 -151
-105 -227 -105 -50 0 -80 -7 -133 -30 -99 -43 -157 -52 -222 -35 -83 22 -160
50 -214 79 -27 14 -57 26 -67 26 -26 0 -68 -24 -97 -56 -14 -15 -19 -24 -12
-20 32 18 7 -15 -41 -54 -73 -59 -110 -73 -179 -67 l-58 5 0 -38 c0 -28 5 -40
17 -43 17 -4 17 -5 1 -6 -14 -1 -18 -10 -18 -41 0 -37 2 -39 35 -46 19 -3 51
-4 70 -2 19 2 35 0 35 -4 0 -4 5 -8 11 -8 5 0 7 5 3 11 -5 8 1 10 19 7 15 -3
24 -2 22 2 -3 4 5 11 18 15 36 11 230 15 278 6 38 -7 31 -8 -48 -9 -50 -1
-133 -11 -184 -22 -51 -11 -106 -20 -121 -20 -15 0 -28 -5 -28 -11 0 -6 9 -9
23 -6 106 26 237 39 311 32 118 -11 141 -11 240 3 49 6 91 10 93 8 2 -2 -36
-11 -84 -20 -49 -9 -142 -31 -208 -47 -143 -37 -223 -36 -355 1 -76 22 -82 25
-55 31 19 4 22 7 10 8 -11 0 -30 -2 -43 -5 -20 -6 -11 -12 55 -41 158 -69 185
-70 387 -18 135 34 359 36 339 1 -8 -13 19 6 61 43 l29 26 -13 -25 c-7 -14
-20 -30 -29 -37 -13 -9 -14 -16 -5 -30 19 -32 42 -26 73 18 58 79 59 146 2
168 -14 5 -69 12 -121 16 -206 14 -333 33 -362 55 -37 27 -71 25 -171 -10 -88
-31 -242 -56 -166 -27 36 14 51 24 143 101 43 36 52 39 104 39 33 0 84 -10
122 -23 93 -34 243 -35 317 -2 36 15 74 22 125 24 l73 1 -55 7 -55 7 75 2
c103 2 146 14 227 61 57 32 79 40 119 39 42 0 138 -26 109 -28 -5 -1 -21 -11
-35 -22 -30 -25 -9 -15 45 21 52 35 90 37 46 3 -39 -31 -39 -44 -1 -37 16 4
37 4 46 0 14 -5 14 -9 3 -24 -7 -9 -2 -7 12 6 17 15 38 22 65 22 21 0 68 5
103 10 59 8 102 4 171 -16 l25 -7 -25 22 -25 23 25 -7 c31 -9 43 -9 155 -2 89
6 90 6 40 -7 -27 -8 -81 -26 -120 -40 -53 -19 -89 -26 -148 -26 -87 0 -155
-20 -231 -67 -49 -31 -50 -31 -65 -11 -16 19 -18 19 -96 3 -147 -30 -244 -93
-280 -180 l-17 -39 40 36 c23 20 53 43 69 51 42 22 195 67 227 67 l29 0 -41
-44 c-45 -49 -74 -100 -91 -160 -17 -65 -5 -52 24 23 29 77 86 143 163 188 23
14 40 29 37 33 -3 5 0 12 6 16 8 4 9 3 5 -4 -8 -13 6 -17 18 -5 10 10 78 33
100 33 20 0 20 0 0 -15 -18 -14 -17 -15 8 -4 15 7 26 15 24 18 -2 3 21 6 52 6
63 0 82 -19 30 -30 -50 -11 -116 -47 -202 -111 -75 -56 -77 -59 -52 -67 21 -7
25 -14 24 -41 -1 -18 2 -38 5 -43 9 -14 -58 -74 -178 -160 -55 -39 -123 -96
-152 -127 -49 -52 -55 -56 -100 -57 -37 -1 -42 -3 -23 -8 37 -11 74 3 142 54
90 67 113 78 128 60 7 -8 10 -22 6 -30 -5 -13 -2 -14 17 -3 12 7 31 11 41 9
18 -3 18 -2 3 14 -44 44 14 155 80 155 28 0 28 -4 4 -38 -10 -15 -23 -38 -30
-52 -10 -21 -9 -22 1 -7 7 11 41 59 76 109 60 86 62 91 46 109 -22 25 -13 80
21 125 34 45 89 62 153 46 26 -7 66 -15 90 -18 48 -7 52 -19 20 -60 -16 -21
-17 -25 -5 -15 24 19 56 82 50 99 -3 6 0 12 7 12 6 0 9 4 6 8 -3 5 16 19 42
31 26 12 74 40 108 62 33 21 63 39 67 39 4 0 7 -10 7 -22 1 -17 5 -12 14 15 8
21 22 47 32 59 10 11 -21 -8 -71 -41 -99 -68 -224 -121 -285 -121 -22 0 -40 3
-40 6 0 4 9 21 19 38 16 26 35 36 103 58 46 15 111 34 145 42 69 18 147 58
136 71 -5 4 -3 5 3 2 11 -6 36 18 47 46 3 9 5 17 4 17 -1 0 -31 -9 -65 -20
-63 -20 -152 -27 -152 -12 1 26 32 39 115 51 62 8 94 17 103 29 11 15 4 18
-75 29 -178 26 -250 60 -314 148 -8 11 -23 27 -34 35 -13 10 -10 3 8 -18 15
-19 27 -43 27 -54 0 -36 69 -94 135 -113 33 -10 67 -20 75 -22 24 -8 -39 -32
-85 -32 -22 0 -66 8 -98 19 -59 20 -112 50 -88 50 10 0 12 9 7 31 -15 76 -68
112 -270 184 -174 61 -249 100 -316 162 -70 65 -104 126 -130 237 -24 105 -48
153 -94 193 -34 31 -105 53 -166 53 -42 0 -135 37 -172 68 -18 15 -29 20 -24
12 4 -8 -2 -4 -13 10 -11 14 -43 71 -71 128 -60 122 -112 182 -225 257 -67 44
-300 180 -382 224 -23 12 -23 11 -23 -48z m230 -618 c0 -20 -24 -11 -28 10 -2
12 1 15 12 11 9 -3 16 -13 16 -21z m387 -19 c-3 -3 -12 -4 -19 -1 -8 3 -5 6 6
6 11 1 17 -2 13 -5z m385 -139 c46 -31 70 -70 109 -180 39 -111 60 -155 111
-225 l39 -55 -36 40 c-44 49 -83 123 -129 244 -41 111 -55 133 -108 171 -49
36 -38 40 14 5z m289 -472 c13 -16 12 -17 -3 -4 -10 7 -18 15 -18 17 0 8 8 3
21 -13z m179 -103 c8 -5 11 -10 5 -10 -5 0 -17 5 -25 10 -8 5 -10 10 -5 10 6
0 17 -5 25 -10z m183 -251 c59 -7 107 -16 107 -21 0 -4 -7 -8 -16 -8 -8 0 -12
-5 -9 -10 4 -7 -3 -8 -21 -4 -19 5 -25 4 -20 -5 12 -19 -66 -13 -121 9 -54 23
-92 64 -51 56 13 -3 71 -10 131 -17z m557 -89 c-14 -4 -38 -8 -55 -8 l-30 0
30 8 c17 4 41 8 55 8 l25 0 -25 -8z"/>
<path d="M2882 4160 c0 -14 2 -19 5 -12 2 6 2 18 0 25 -3 6 -5 1 -5 -13z"/>
<path d="M5014 4138 l-29 -33 33 29 c17 17 32 31 32 33 0 8 -8 1 -36 -29z"/>
<path d="M1910 4156 c0 -2 14 -14 30 -26 17 -12 30 -19 30 -16 0 2 -13 14 -30
26 -16 12 -30 19 -30 16z"/>
<path d="M941 4114 c0 -11 3 -14 6 -6 3 7 2 16 -1 19 -3 4 -6 -2 -5 -13z"/>
<path d="M1240 4126 c0 -2 8 -10 18 -17 15 -13 16 -12 3 4 -13 16 -21 21 -21
13z"/>
<path d="M2571 4114 c0 -11 3 -14 6 -6 3 7 2 16 -1 19 -3 4 -6 -2 -5 -13z"/>
<path d="M1980 4107 c0 -1 18 -23 41 -47 98 -107 196 -269 220 -363 8 -35 17
-47 42 -58 22 -10 34 -23 38 -44 5 -23 7 -18 8 24 1 46 -3 56 -24 73 -16 12
-25 30 -25 47 0 49 -93 189 -179 271 -68 65 -121 107 -121 97z"/>
<path d="M960 4061 c0 -6 4 -13 10 -16 6 -3 7 1 4 9 -7 18 -14 21 -14 7z"/>
<path d="M2842 4045 c0 -16 2 -22 5 -12 2 9 2 23 0 30 -3 6 -5 -1 -5 -18z"/>
<path d="M290 4056 c0 -2 8 -10 18 -17 15 -13 16 -12 3 4 -13 16 -21 21 -21
13z"/>
<path d="M2581 4044 c0 -11 3 -14 6 -6 3 7 2 16 -1 19 -3 4 -6 -2 -5 -13z"/>
<path d="M4919 4033 l-24 -28 28 24 c25 23 32 31 24 31 -2 0 -14 -12 -28 -27z"/>
<path d="M0 4013 c1 -30 22 -66 43 -69 24 -4 65 -23 72 -33 3 -6 11 -11 16
-11 6 0 0 14 -12 31 -26 37 -100 109 -111 109 -4 0 -8 -12 -8 -27z"/>
<path d="M1010 3995 c19 -19 36 -35 39 -35 3 0 -10 16 -29 35 -19 19 -36 35
-39 35 -3 0 10 -16 29 -35z"/>
<path d="M5075 3979 c-68 -71 -181 -156 -272 -205 -49 -26 -168 -94 -265 -151
-98 -57 -217 -121 -265 -141 -77 -31 -99 -36 -178 -37 -76 -1 -103 -7 -170
-33 -106 -42 -157 -83 -285 -227 -107 -120 -208 -202 -276 -223 -18 -5 -71 -7
-117 -5 l-84 6 -54 -62 c-30 -34 -72 -73 -94 -87 -22 -13 -35 -24 -29 -24 6 0
29 13 51 29 74 53 97 61 186 61 73 0 92 4 143 30 77 38 154 107 250 226 72 88
86 101 152 131 40 19 78 33 85 31 6 -2 28 7 47 19 34 20 140 56 147 50 2 -2
-15 -12 -37 -22 -22 -10 -37 -22 -34 -27 3 -5 2 -8 -3 -7 -21 4 -34 -2 -27
-13 4 -7 3 -8 -4 -4 -7 4 -23 -4 -36 -17 -14 -14 -27 -22 -30 -20 -3 3 -8 -2
-12 -11 -3 -9 -12 -16 -18 -16 -13 0 -81 -69 -240 -244 -88 -96 -156 -146
-226 -166 -19 -5 -98 -18 -175 -30 -162 -23 -224 -48 -274 -110 -19 -23 -55
-52 -84 -66 -58 -27 -48 -25 68 17 44 16 90 29 102 29 12 0 25 5 28 10 7 12
45 14 45 2 0 -4 -7 -19 -17 -32 -14 -21 -11 -20 18 6 19 17 49 36 68 43 45 15
134 14 151 -1 12 -11 12 -10 1 5 -21 27 11 22 38 -7 20 -21 27 -22 67 -15 82
15 127 43 193 117 70 79 119 111 231 150 69 24 88 26 235 26 175 -1 218 -10
348 -75 82 -42 176 -61 241 -48 71 13 117 48 182 135 72 98 134 143 193 144
28 0 51 -6 63 -17 17 -15 18 -13 18 60 0 90 -8 95 -81 48 -43 -28 -116 -98
-112 -106 6 -11 -157 -179 -165 -171 -2 3 -11 -2 -19 -10 -11 -11 -30 -13 -81
-8 -85 7 -123 19 -197 59 -92 51 -155 66 -305 72 -216 9 -365 -28 -459 -112
-53 -48 -56 -23 -5 37 l37 43 -43 -43 c-31 -32 -41 -49 -36 -65 9 -34 -42
-115 -90 -143 -47 -28 -140 -46 -185 -37 -29 5 -28 6 31 37 83 42 245 188 281
252 16 28 37 58 47 67 41 37 187 105 341 157 91 32 175 61 186 66 17 7 18 6 7
-8 -8 -10 -9 -19 -3 -22 5 -4 12 -2 16 4 3 5 3 10 -1 10 -27 0 74 55 139 75
121 39 145 40 252 15 168 -39 255 -21 360 74 28 25 58 48 68 52 13 4 17 17 17
61 0 55 0 56 -20 38 -22 -20 -27 -30 -9 -20 6 4 -6 -15 -25 -43 -25 -33 -50
-55 -76 -66 -52 -21 -143 -20 -204 0 -51 17 -59 29 -10 16 18 -5 46 -4 74 4
42 11 43 12 13 13 -18 1 -63 13 -100 27 -91 35 -147 34 -253 -4 l-85 -31 34
27 c19 15 77 50 130 79 94 50 97 51 130 37 19 -8 36 -12 39 -9 3 3 -1 5 -9 5
-19 0 93 52 159 74 29 10 51 20 49 22 -2 3 -16 0 -31 -6 -15 -5 -46 -9 -69 -8
l-42 1 38 4 c20 2 37 9 37 14 0 6 10 8 23 4 15 -4 18 -3 9 3 -11 7 -1 20 39
53 29 24 77 68 106 98 43 43 53 60 53 87 0 19 -1 34 -3 34 -2 0 -21 -19 -42
-41z m-8 -800 c-21 -5 -47 -14 -58 -19 -10 -6 -19 -8 -19 -5 0 10 64 34 90 34
18 -1 14 -3 -13 -10z m-97 -43 c0 -2 -8 -10 -17 -17 -16 -13 -17 -12 -4 4 13
16 21 21 21 13z"/>
<path d="M1728 3983 c7 -3 16 -2 19 1 4 3 -2 6 -13 5 -11 0 -14 -3 -6 -6z"/>
<path d="M2592 3965 c0 -16 2 -22 5 -12 2 9 2 23 0 30 -3 6 -5 -1 -5 -18z"/>
<path d="M4420 3960 c-8 -5 -10 -10 -5 -10 6 0 17 5 25 10 8 5 11 10 5 10 -5
0 -17 -5 -25 -10z"/>
<path d="M1090 3935 c0 -7 61 -37 66 -33 2 3 -12 12 -31 21 -19 9 -35 15 -35
12z"/>
<path d="M2864 3835 c0 -60 1 -84 3 -52 2 32 2 81 0 110 -2 29 -3 3 -3 -58z"/>
<path d="M4334 3914 c-18 -14 -18 -15 4 -4 12 6 22 13 22 15 0 8 -5 6 -26 -11z"/>
<path d="M1640 3916 c0 -3 9 -10 20 -16 11 -6 20 -8 20 -6 0 3 -9 10 -20 16
-11 6 -20 8 -20 6z"/>
<path d="M3024 3883 c-8 -21 -31 -70 -50 -109 -33 -65 -36 -75 -30 -135 4 -35
6 -81 6 -101 0 -20 4 -39 8 -42 12 -7 13 76 1 130 -11 49 -10 55 25 131 41 92
67 163 60 163 -3 0 -12 -17 -20 -37z"/>
<path d="M3734 3888 l-19 -23 23 19 c12 11 22 21 22 23 0 8 -8 2 -26 -19z"/>
<path d="M1940 3897 c0 -2 15 -16 33 -33 l32 -29 -29 33 c-28 30 -36 37 -36
29z"/>
<path d="M1200 3880 c8 -5 20 -10 25 -10 6 0 3 5 -5 10 -8 5 -19 10 -25 10 -5
0 -3 -5 5 -10z"/>
<path d="M1690 3886 c0 -3 9 -10 20 -16 11 -6 20 -8 20 -6 0 3 -9 10 -20 16
-11 6 -20 8 -20 6z"/>
<path d="M2531 3874 c0 -11 3 -14 6 -6 3 7 2 16 -1 19 -3 4 -6 -2 -5 -13z"/>
<path d="M2602 3790 c0 -52 3 -117 8 -145 7 -45 7 -42 8 35 0 47 -4 112 -8
145 -7 57 -7 55 -8 -35z"/>
<path d="M1310 3840 c8 -5 20 -10 25 -10 6 0 3 5 -5 10 -8 5 -19 10 -25 10 -5
0 -3 -5 5 -10z"/>
<path d="M5049 3823 c-13 -16 -12 -17 4 -4 16 13 21 21 13 21 -2 0 -10 -8 -17
-17z"/>
<path d="M2542 3805 c0 -16 2 -22 5 -12 2 9 2 23 0 30 -3 6 -5 -1 -5 -18z"/>
<path d="M1810 3806 c0 -2 8 -10 18 -17 15 -13 16 -12 3 4 -13 16 -21 21 -21
13z"/>
<path d="M230 3797 c0 -2 15 -16 33 -33 l32 -29 -29 33 c-28 30 -36 37 -36 29z"/>
<path d="M2661 3759 c-11 -41 -10 -48 13 -99 14 -30 26 -71 27 -90 1 -19 6 2
11 48 8 72 7 87 -8 109 -9 15 -20 38 -23 52 -7 23 -8 22 -20 -20z"/>
<path d="M1865 3760 c10 -11 20 -20 23 -20 3 0 -3 9 -13 20 -10 11 -20 20 -23
20 -3 0 3 -9 13 -20z"/>
<path d="M1730 3756 c0 -2 8 -10 18 -17 15 -13 16 -12 3 4 -13 16 -21 21 -21
13z"/>
<path d="M2512 3730 c0 -19 2 -27 5 -17 2 9 2 25 0 35 -3 9 -5 1 -5 -18z"/>
<path d="M2190 3747 c0 -2 7 -25 16 -52 14 -40 16 -69 9 -174 -10 -162 -8
-214 10 -277 16 -55 54 -113 55 -83 0 9 -7 36 -15 60 -11 30 -19 108 -24 239
-7 140 -14 208 -26 243 -14 39 -25 58 -25 44z"/>
<path d="M1814 3680 c66 -74 73 -80 48 -45 -11 17 -37 46 -58 65 -31 28 -29
24 10 -20z"/>
<path d="M1945 3690 c21 -22 41 -40 44 -40 3 0 -13 18 -34 40 -21 22 -41 40
-44 40 -3 0 13 -18 34 -40z"/>
<path d="M398 3693 c7 -3 16 -2 19 1 4 3 -2 6 -13 5 -11 0 -14 -3 -6 -6z"/>
<path d="M1630 3676 c0 -2 8 -10 18 -17 15 -13 16 -12 3 4 -13 16 -21 21 -21
13z"/>
<path d="M1720 3595 c30 -30 57 -55 59 -55 3 0 -19 25 -49 55 -30 30 -57 55
-59 55 -3 0 19 -25 49 -55z"/>
<path d="M2541 3604 c0 -11 3 -14 6 -6 3 7 2 16 -1 19 -3 4 -6 -2 -5 -13z"/>
<path d="M2501 3594 c0 -11 3 -14 6 -6 3 7 2 16 -1 19 -3 4 -6 -2 -5 -13z"/>
<path d="M4903 3583 c9 -2 23 -2 30 0 6 3 -1 5 -18 5 -16 0 -22 -2 -12 -5z"/>
<path d="M3379 3543 l-34 -38 38 34 c20 19 37 36 37 38 0 8 -8 0 -41 -34z"/>
<path d="M2141 3524 c0 -11 3 -14 6 -6 3 7 2 16 -1 19 -3 4 -6 -2 -5 -13z"/>
<path d="M2602 3505 c0 -16 2 -22 5 -12 2 9 2 23 0 30 -3 6 -5 -1 -5 -18z"/>
<path d="M2691 3518 c0 -9 -4 -25 -7 -35 -5 -17 -5 -17 6 0 6 10 9 25 7 35 -4
15 -5 15 -6 0z"/>
<path d="M2851 3484 c0 -11 3 -14 6 -6 3 7 2 16 -1 19 -3 4 -6 -2 -5 -13z"/>
<path d="M2940 3475 c0 -8 4 -15 10 -15 5 0 7 7 4 15 -4 8 -8 15 -10 15 -2 0
-4 -7 -4 -15z"/>
<path d="M2152 3460 c0 -14 2 -19 5 -12 2 6 2 18 0 25 -3 6 -5 1 -5 -13z"/>
<path d="M2592 3420 c0 -14 2 -19 5 -12 2 6 2 18 0 25 -3 6 -5 1 -5 -13z"/>
<path d="M2646 3425 c-11 -8 -15 -15 -9 -15 6 0 16 7 23 15 16 19 11 19 -14 0z"/>
<path d="M2795 3373 c-25 -38 -32 -68 -17 -77 10 -6 49 52 57 87 10 39 -9 34
-40 -10z"/>
<path d="M5077 3380 c-99 -74 -237 -125 -325 -119 -60 3 -68 1 -112 -36 -63
-53 -105 -60 -200 -36 -108 28 -154 27 -316 -13 -178 -44 -271 -79 -314 -118
-25 -22 -28 -27 -9 -15 14 8 65 27 112 42 52 17 84 31 80 38 -3 6 -1 7 6 3 6
-4 33 -2 59 4 36 10 73 10 162 1 135 -14 142 -15 155 -22 6 -3 46 -6 90 -5 73
1 85 4 132 34 44 28 68 35 159 47 139 19 187 43 362 181 2 1 2 11 0 23 -3 19
-5 18 -41 -9z"/>
<path d="M2163 3340 c0 -30 2 -43 4 -27 2 15 2 39 0 55 -2 15 -4 2 -4 -28z"/>
<path d="M2121 3364 c0 -11 3 -14 6 -6 3 7 2 16 -1 19 -3 4 -6 -2 -5 -13z"/>
<path d="M158 3333 c7 -3 16 -2 19 1 4 3 -2 6 -13 5 -11 0 -14 -3 -6 -6z"/>
<path d="M2650 3309 c-7 -11 -10 -23 -7 -25 2 -2 9 7 15 21 14 30 7 33 -8 4z"/>
<path d="M2440 3296 c0 -2 8 -10 18 -17 15 -13 16 -12 3 4 -13 16 -21 21 -21
13z"/>
<path d="M3829 3273 c-13 -16 -12 -17 4 -4 9 7 17 15 17 17 0 8 -8 3 -21 -13z"/>
<path d="M2601 3264 c0 -11 3 -14 6 -6 3 7 2 16 -1 19 -3 4 -6 -2 -5 -13z"/>
<path d="M1211 3254 c0 -11 3 -14 6 -6 3 7 2 16 -1 19 -3 4 -6 -2 -5 -13z"/>
<path d="M3464 3228 l-19 -23 23 19 c12 11 22 21 22 23 0 8 -8 2 -26 -19z"/>
<path d="M3779 3233 c-13 -16 -12 -17 4 -4 16 13 21 21 13 21 -2 0 -10 -8 -17
-17z"/>
<path d="M1221 3204 c0 -11 3 -14 6 -6 3 7 2 16 -1 19 -3 4 -6 -2 -5 -13z"/>
<path d="M2595 3137 c0 -48 3 -78 7 -69 8 21 8 99 -1 131 -3 13 -6 -15 -6 -62z"/>
<path d="M3109 3178 c-18 -24 -46 -58 -63 -75 -16 -18 -25 -33 -20 -33 15 0
75 65 68 73 -4 4 -3 7 3 7 6 0 20 16 32 35 27 47 20 44 -20 -7z"/>
<path d="M2532 3180 c0 -19 2 -27 5 -17 2 9 2 25 0 35 -3 9 -5 1 -5 -18z"/>
<path d="M940 3175 c13 -14 26 -25 28 -25 3 0 -5 11 -18 25 -13 14 -26 25 -28
25 -3 0 5 -11 18 -25z"/>
<path d="M2751 3164 c0 -11 3 -14 6 -6 3 7 2 16 -1 19 -3 4 -6 -2 -5 -13z"/>
<path d="M3694 3158 l-19 -23 23 19 c21 18 27 26 19 26 -2 0 -12 -10 -23 -22z"/>
<path d="M2516 3108 c-3 -13 -7 -46 -10 -75 -3 -28 -14 -70 -25 -92 -13 -24
-20 -57 -20 -83 l2 -43 6 51 c5 41 14 60 45 94 37 41 38 45 32 94 -4 28 -7 57
-8 64 -2 20 -17 14 -22 -10z"/>
<path d="M3634 3088 l-19 -23 23 19 c21 18 27 26 19 26 -2 0 -12 -10 -23 -22z"/>
<path d="M0 3066 c0 -2 8 -10 18 -17 15 -13 16 -12 3 4 -13 16 -21 21 -21 13z"/>
<path d="M1280 3057 c0 -2 15 -16 33 -33 l32 -29 -29 33 c-28 30 -36 37 -36
29z"/>
<path d="M2952 3004 l-57 -56 46 33 c43 32 87 79 74 79 -4 0 -32 -25 -63 -56z"/>
<path d="M4989 3033 c-13 -17 -13 -17 6 -3 11 8 22 16 24 17 2 2 0 3 -6 3 -6
0 -17 -8 -24 -17z"/>
<path d="M5078 3040 c18 -8 22 -17 23 -57 2 -85 17 -107 18 -26 1 62 -2 74
-18 83 -11 5 -26 10 -33 9 -7 0 -3 -4 10 -9z"/>
<path d="M3564 3008 l-29 -33 33 29 c30 28 37 36 29 36 -2 0 -16 -15 -33 -32z"/>
<path d="M2613 2940 c0 -41 2 -58 4 -37 2 20 2 54 0 75 -2 20 -4 3 -4 -38z"/>
<path d="M4980 2972 c0 -12 39 -60 40 -49 0 5 -9 20 -20 34 -11 14 -20 21 -20
15z"/>
<path d="M3489 2943 c-13 -16 -12 -17 4 -4 16 13 21 21 13 21 -2 0 -10 -8 -17
-17z"/>
<path d="M10 2940 c8 -5 20 -10 25 -10 6 0 3 5 -5 10 -8 5 -19 10 -25 10 -6 0
-3 -5 5 -10z"/>
<path d="M2869 2933 c-13 -16 -12 -17 4 -4 16 13 21 21 13 21 -2 0 -10 -8 -17
-17z"/>
<path d="M1125 2910 c10 -11 20 -20 23 -20 3 0 -3 9 -13 20 -10 11 -20 20 -23
20 -3 0 3 -9 13 -20z"/>
<path d="M168 2903 c6 -2 18 -2 25 0 6 3 1 5 -13 5 -14 0 -19 -2 -12 -5z"/>
<path d="M3407 2894 c-3 -4 -41 -20 -84 -36 -43 -16 -65 -26 -50 -23 42 8 136
45 142 56 7 10 2 12 -8 3z"/>
<path d="M3958 2853 c7 -3 16 -2 19 1 4 3 -2 6 -13 5 -11 0 -14 -3 -6 -6z"/>
<path d="M4058 2853 c6 -2 18 -2 25 0 6 3 1 5 -13 5 -14 0 -19 -2 -12 -5z"/>
<path d="M4144 2806 c11 -10 46 -35 76 -54 30 -19 72 -50 92 -68 115 -102 225
-107 483 -20 72 25 146 47 165 51 19 4 63 16 98 28 46 15 62 24 62 38 0 11 -1
19 -3 19 -6 0 -185 -52 -292 -84 -100 -31 -136 -38 -215 -38 -107 -2 -181 18
-224 57 -36 33 -64 47 -78 39 -7 -5 -8 -3 -3 6 6 10 4 12 -9 7 -9 -4 -15 -3
-12 2 8 12 -20 22 -41 14 -11 -5 -14 -3 -8 6 6 10 2 11 -15 6 -12 -4 -20 -3
-17 1 3 5 -14 9 -38 9 -42 0 -42 0 -21 -19z"/>
<path d="M1800 2810 c-23 -7 -23 -8 -3 -9 12 -1 25 4 28 9 3 6 5 10 3 9 -2 -1
-14 -5 -28 -9z"/>
<path d="M3168 2813 c7 -3 16 -2 19 1 4 3 -2 6 -13 5 -11 0 -14 -3 -6 -6z"/>
<path d="M1855 2800 c-3 -5 1 -10 9 -10 9 0 16 5 16 10 0 6 -4 10 -9 10 -6 0
-13 -4 -16 -10z"/>
<path d="M3118 2803 c7 -3 16 -2 19 1 4 3 -2 6 -13 5 -11 0 -14 -3 -6 -6z"/>
<path d="M3048 2793 c6 -2 18 -2 25 0 6 3 1 5 -13 5 -14 0 -19 -2 -12 -5z"/>
<path d="M4668 2773 c7 -3 16 -2 19 1 4 3 -2 6 -13 5 -11 0 -14 -3 -6 -6z"/>
<path d="M1585 2700 c11 -5 29 -8 40 -8 16 0 15 2 -5 8 -34 11 -60 11 -35 0z"/>
<path d="M3730 2608 c-19 -28 -43 -59 -52 -69 -10 -11 -13 -19 -7 -19 8 0 7
-6 -2 -17 -10 -13 -6 -12 11 3 14 11 37 28 52 37 17 11 29 29 33 51 12 63 2
67 -35 14z"/>
<path d="M4750 2613 c-117 -40 -146 -46 -220 -47 -47 -1 -101 3 -120 7 l-35 8
35 -16 c19 -9 56 -19 82 -22 31 -4 45 -10 42 -18 -3 -7 2 -20 11 -29 21 -21
71 -47 77 -40 3 2 25 -5 49 -16 28 -12 64 -19 99 -19 l55 1 -69 14 c-38 9 -83
22 -99 31 -23 11 -31 12 -37 3 -4 -7 -7 -1 -7 14 0 26 0 26 18 10 11 -9 19
-12 19 -6 0 13 79 40 157 52 46 8 71 6 114 -6 65 -19 76 -20 114 -11 21 4 16
-1 -20 -18 -31 -15 -39 -22 -22 -19 55 12 122 -41 101 -79 -4 -7 -1 -7 7 1 10
9 14 40 14 109 l0 96 -40 21 c-29 15 -61 21 -115 23 -66 2 -91 -4 -210 -44z"/>
<path d="M4260 2635 c0 -7 101 -57 106 -53 2 2 -21 16 -51 31 -30 15 -55 25
-55 22z"/>
<path d="M3918 2597 c-27 -14 -48 -23 -48 -21 0 10 -90 -97 -104 -123 -25 -49
-19 -54 19 -18 44 40 93 55 178 55 62 0 214 -24 225 -35 3 -3 -4 -15 -15 -28
-26 -28 -40 -56 -63 -123 l-19 -54 29 15 c16 8 35 15 43 15 7 0 39 -29 70 -64
42 -48 76 -74 128 -100 40 -20 78 -36 85 -36 26 0 65 -24 60 -37 -3 -7 13 0
36 15 l42 27 -80 6 c-84 6 -117 16 -108 30 3 5 -3 6 -12 2 -13 -5 -15 -3 -9 7
5 9 4 11 -4 6 -16 -10 -64 22 -55 36 5 7 3 8 -5 3 -27 -16 -118 104 -108 143
4 14 5 14 6 2 1 -10 19 -21 47 -28 25 -7 80 -29 122 -48 133 -62 175 -77 512
-181 47 -14 114 -39 149 -55 35 -15 68 -28 72 -28 5 0 9 31 9 70 l0 70 -47 24
c-27 13 -101 38 -166 55 -80 21 -171 55 -280 106 -173 80 -369 193 -361 207 3
4 -2 5 -10 2 -10 -4 -18 1 -22 10 -7 17 -89 64 -121 69 -10 1 -22 5 -28 9 -5
3 -35 9 -65 12 -46 5 -63 2 -102 -17z m257 -206 c-3 -6 -11 -11 -17 -11 -6 0
-6 6 2 15 14 17 26 13 15 -4z"/>
<path d="M2038 2573 c7 -3 16 -2 19 1 4 3 -2 6 -13 5 -11 0 -14 -3 -6 -6z"/>
<path d="M2514 2505 c-9 -35 3 -107 32 -193 13 -40 24 -82 24 -95 0 -16 3 -18
9 -9 11 18 21 -6 22 -56 1 -36 2 -36 8 -7 6 28 7 26 24 -27 15 -47 16 -64 6
-101 -6 -24 -9 -55 -6 -68 3 -17 5 -13 6 13 1 50 14 54 46 17 23 -28 75 -120
75 -134 0 -14 -57 -2 -79 18 l-26 22 24 -27 c15 -17 35 -28 51 -28 20 0 31 -9
49 -41 13 -22 20 -43 17 -46 -4 -4 7 -20 22 -37 16 -17 39 -56 51 -86 35 -84
91 -213 101 -232 6 -11 6 -19 -2 -24 -7 -5 -8 -3 -3 6 5 9 4 11 -3 6 -7 -4
-12 -14 -12 -23 0 -9 3 -13 7 -10 3 4 12 2 20 -4 9 -8 13 -42 14 -118 1 -61 4
-92 8 -72 l6 33 31 -43 c61 -86 113 -216 127 -321 l6 -37 -31 32 -30 32 31
-40 c17 -22 31 -46 31 -53 0 -7 4 -10 10 -7 6 4 8 -7 5 -27 -3 -18 -2 -27 1
-20 4 8 19 -9 40 -45 19 -31 64 -96 100 -145 36 -48 69 -100 74 -115 8 -26 8
-27 9 -4 1 18 8 11 32 -35 28 -52 32 -71 40 -183 10 -149 15 -171 40 -171 20
0 26 15 9 25 -6 3 -8 25 -5 48 3 30 2 35 -3 17 -7 -22 -9 -19 -15 24 -10 68
-7 300 3 261 4 -16 9 -70 10 -120 3 -85 4 -87 9 -32 l6 59 36 -64 c20 -34 47
-94 60 -133 32 -96 43 -104 36 -25 l-6 65 20 -45 c30 -70 34 -75 68 -78 30 -3
31 -2 25 25 -18 78 -53 162 -125 306 -147 292 -207 380 -314 464 -38 30 -75
65 -82 77 -8 13 -12 62 -11 131 1 121 -16 179 -56 195 -38 14 -73 64 -99 136
-49 138 -160 409 -168 412 -5 2 -7 8 -3 13 3 5 1 9 -5 9 -6 0 -7 7 -4 17 4 11
3 14 -5 9 -8 -5 -10 -2 -6 8 3 9 1 16 -6 16 -6 0 -8 5 -5 10 3 6 1 10 -5 10
-6 0 -8 5 -5 10 3 6 2 10 -4 10 -6 0 -7 7 -4 17 5 12 3 14 -7 8 -10 -6 -12 -4
-7 8 3 10 2 17 -4 17 -6 0 -7 5 -4 10 3 6 1 10 -5 10 -6 0 -8 5 -5 10 3 6 1
10 -5 10 -6 0 -8 5 -5 10 3 6 1 10 -5 10 -6 0 -8 5 -5 10 3 6 1 10 -4 10 -6 0
-10 3 -9 8 1 4 -8 26 -20 48 -11 23 -18 44 -15 48 4 3 1 6 -6 6 -7 0 -9 5 -6
10 3 6 1 10 -6 10 -7 0 -10 3 -6 6 3 4 -19 56 -49 116 -30 61 -53 112 -50 115
3 4 91 -148 110 -192 3 -6 9 -4 14 4 8 11 18 -1 42 -50 41 -83 42 -84 135
-144 74 -48 123 -93 168 -155 l19 -25 -17 28 c-10 18 -14 38 -10 54 4 18 2 23
-6 17 -9 -5 -10 -1 -7 14 4 12 2 22 -4 22 -5 0 -7 4 -4 9 15 24 -108 128 -176
150 -49 16 -68 44 -68 99 0 38 -2 43 -15 32 -12 -10 -30 3 -105 78 -85 85
-107 98 -95 55 3 -10 -16 26 -42 79 -27 54 -51 98 -55 98 -4 0 -10 -11 -14
-25z m900 -1939 c-3 -9 -10 -16 -14 -16 -8 0 -100 171 -100 185 0 3 27 -30 60
-73 39 -52 58 -86 54 -96z"/>
<path d="M3710 2496 c-5 -15 -10 -37 -9 -49 0 -13 6 -4 14 23 16 49 12 69 -5
26z"/>
<path d="M2 2433 c2 -48 6 -58 20 -57 10 1 15 -2 13 -7 -8 -12 49 -39 82 -39
15 0 37 7 47 15 19 14 18 15 -17 15 -41 0 -62 16 -101 79 -39 62 -47 61 -44
-6z"/>
<path d="M2327 2445 c-4 -8 -12 -14 -19 -13 -7 2 -12 -1 -13 -7 0 -5 -5 -19
-11 -30 -6 -11 -21 -50 -34 -88 -23 -66 -29 -72 -274 -316 -452 -449 -670
-675 -734 -758 -55 -72 -60 -82 -37 -73 15 6 60 37 100 70 l72 59 -33 -62
c-18 -34 -33 -66 -33 -72 0 -5 6 2 14 16 19 34 81 81 103 77 12 -2 17 -13 16
-33 -2 -53 -10 -105 -19 -112 -4 -5 -5 -1 0 7 5 8 4 12 0 7 -11 -9 -16 -37 -7
-36 23 3 33 -6 56 -53 32 -65 34 -113 4 -147 l-23 -26 29 25 c16 14 37 44 48
68 22 49 20 68 -19 182 -19 54 -24 85 -19 110 9 47 16 57 50 66 21 5 27 4 22
-5 -10 -15 32 -14 112 3 78 17 88 6 47 -56 -23 -34 -51 -103 -79 -193 -4 -11
5 3 19 30 13 28 25 56 25 63 0 23 37 86 65 112 35 32 75 116 75 158 0 21 -8
41 -23 55 -12 13 -21 31 -19 40 2 9 -1 17 -7 17 -5 0 -12 9 -16 19 -6 19 -7
19 -35 3 -95 -54 -40 119 78 245 l44 48 -34 -45 c-49 -64 -76 -108 -58 -93 8
6 33 15 55 19 38 7 39 6 25 -12 -14 -18 -14 -18 3 -5 9 8 16 16 13 18 -5 5 53
63 65 63 17 0 20 -46 4 -84 -9 -22 -11 -35 -5 -31 8 5 10 -6 4 -41 -10 -74 7
-45 32 54 21 87 60 179 71 169 2 -3 0 -14 -5 -24 -22 -41 -64 -214 -72 -303
-10 -92 -34 -190 -49 -190 -4 0 -7 -8 -7 -17 0 -10 -4 -28 -8 -40 -5 -14 -3
-23 3 -23 6 0 11 6 11 13 0 6 10 28 22 47 12 19 23 44 24 55 1 11 9 49 17 85
9 36 20 92 25 125 9 59 9 58 8 -32 0 -51 -5 -93 -10 -93 -5 0 -6 -3 -3 -7 4
-3 -3 -21 -14 -40 -25 -40 -21 -48 14 -32 32 15 74 5 81 -19 4 -11 0 -35 -9
-55 -8 -20 -15 -49 -15 -65 0 -15 -4 -32 -8 -37 -5 -6 2 -21 15 -34 l23 -24 0
25 c0 14 -5 38 -10 55 -8 21 -8 38 0 59 14 36 59 84 79 84 37 1 42 14 25 71
-14 46 -15 64 -5 123 13 76 4 101 -24 72 -21 -21 -27 -20 -60 6 -27 21 -27 23
-21 94 10 107 30 163 87 240 64 87 73 96 59 59 -6 -16 -11 -30 -10 -30 1 0 -2
-8 -5 -17 -4 -10 -12 -15 -19 -11 -6 3 -8 3 -4 -2 4 -4 2 -15 -4 -23 -7 -8
-13 -21 -14 -30 -2 -9 7 -4 20 13 l23 28 16 -24 c9 -13 17 -36 17 -51 0 -33
19 -48 21 -16 1 13 6 -17 10 -66 8 -78 6 -94 -11 -134 -21 -46 -26 -67 -11
-43 21 32 79 -38 95 -116 15 -68 9 -179 -13 -246 -21 -61 -21 -68 -7 -102 11
-25 21 -35 30 -32 12 5 13 -1 9 -29 -5 -28 -3 -33 9 -29 24 10 40 -20 34 -62
-4 -26 -3 -33 3 -23 9 13 10 13 15 0 2 -8 18 -58 34 -110 38 -122 81 -193 188
-310 149 -164 203 -257 204 -353 l0 -58 -37 30 c-21 16 -50 33 -64 36 -15 4
-51 34 -82 69 -31 35 -80 83 -109 106 -46 38 -43 33 22 -32 41 -41 91 -102
110 -134 20 -33 42 -60 50 -62 51 -11 90 -70 90 -137 0 -34 1 -35 39 -35 l39
0 -4 108 c-7 167 -10 180 -84 330 -63 129 -77 150 -162 240 -103 109 -149 186
-168 287 -8 44 -9 68 -1 89 l11 28 19 -24 c11 -13 40 -72 66 -130 27 -62 73
-142 111 -194 35 -49 64 -95 64 -102 0 -10 4 -10 16 2 22 23 37 20 24 -5 -13
-23 1 -49 26 -49 19 0 82 -58 100 -91 17 -34 18 -110 2 -129 -11 -12 -10 -12
5 -1 10 8 17 28 18 50 1 20 11 -43 24 -139 25 -190 42 -270 57 -270 6 0 8 6 5
13 -17 45 -29 177 -23 268 13 232 19 299 25 299 12 0 57 -52 86 -100 15 -24
41 -62 58 -85 l30 -40 -6 40 c-4 22 -23 80 -44 130 -50 118 -87 156 -176 178
-199 50 -287 136 -347 337 -28 91 -51 138 -82 167 -31 28 -47 30 -85 10 -46
-24 -79 -22 -99 8 -19 28 -14 87 17 194 23 78 24 151 3 206 -8 22 -16 44 -17
50 -1 5 -9 15 -17 22 -8 7 -12 13 -7 13 4 0 -2 9 -12 19 -10 10 -22 36 -25 57
-6 38 12 169 29 208 5 12 5 17 -2 13 -12 -8 -33 57 -33 103 0 39 20 110 31
110 4 0 12 -7 17 -16 8 -15 10 -15 15 0 4 9 11 16 16 16 19 0 53 -81 59 -139
l6 -56 13 44 c14 48 8 84 -27 166 -16 37 -23 44 -52 47 -22 2 -36 10 -44 25
-6 13 -13 21 -16 18 -3 -3 -3 6 -1 20 3 13 10 22 15 19 5 -3 8 0 7 7 -2 8 1
29 5 47 8 35 3 54 -7 27z m-37 -164 c0 -5 -33 -57 -72 -116 -40 -59 -80 -117
-88 -128 -12 -19 -10 -19 14 3 31 27 28 20 -18 -48 -16 -23 -32 -39 -37 -36
-5 3 -6 -1 -4 -8 3 -7 -9 -29 -26 -48 -16 -19 -27 -29 -24 -22 4 8 -2 22 -14
34 -27 25 -21 48 29 108 57 67 97 103 108 96 6 -4 14 -1 18 5 5 8 2 10 -7 4
-8 -4 -1 4 14 18 16 14 28 28 28 31 -3 24 3 37 35 74 37 43 44 49 44 33z
m-182 -699 c26 -3 32 -8 32 -27 0 -34 -27 -57 -64 -53 -30 3 -31 4 -34 62 -4
77 6 103 21 56 10 -29 17 -36 45 -38z m-424 -63 c20 32 66 -19 66 -73 0 -33
-43 -66 -87 -66 -31 0 -33 2 -27 28 4 15 11 35 15 44 5 9 9 32 9 50 0 22 3 29
9 19 6 -9 11 -10 15 -2z m-100 -41 c-22 -40 -59 -80 -84 -93 -40 -21 -44 -19
-25 13 25 41 131 119 109 80z m15 -80 c-44 -34 -56 -39 -68 -24 -9 11 -5 19
19 40 26 22 35 24 52 15 21 -11 21 -11 -3 -31z m855 -319 c-8 -14 -34 -11 -34
4 0 8 3 17 7 20 9 9 34 -13 27 -24z"/>
<path d="M983 2443 c9 -2 23 -2 30 0 6 3 -1 5 -18 5 -16 0 -22 -2 -12 -5z"/>
<path d="M4838 2433 c7 -3 16 -2 19 1 4 3 -2 6 -13 5 -11 0 -14 -3 -6 -6z"/>
<path d="M4518 2393 c7 -3 16 -2 19 1 4 3 -2 6 -13 5 -11 0 -14 -3 -6 -6z"/>
<path d="M2680 2386 c0 -2 8 -10 18 -17 15 -13 16 -12 3 4 -13 16 -21 21 -21
13z"/>
<path d="M2730 2386 c0 -2 8 -10 18 -17 15 -13 16 -12 3 4 -13 16 -21 21 -21
13z"/>
<path d="M4560 2381 c8 -6 23 -11 33 -11 10 0 39 -11 65 -24 66 -34 237 -79
297 -79 54 0 80 10 132 52 40 32 44 50 5 22 -73 -52 -179 -49 -371 10 -106 33
-186 48 -161 30z"/>
<path d="M2442 2310 c0 -19 2 -27 5 -17 2 9 2 25 0 35 -3 9 -5 1 -5 -18z"/>
<path d="M2750 2315 c13 -14 26 -25 28 -25 3 0 -5 11 -18 25 -13 14 -26 25
-28 25 -3 0 5 -11 18 -25z"/>
<path d="M1038 2323 c7 -3 16 -2 19 1 4 3 -2 6 -13 5 -11 0 -14 -3 -6 -6z"/>
<path d="M3200 2326 c0 -3 9 -10 20 -16 11 -6 20 -8 20 -6 0 3 -9 10 -20 16
-11 6 -20 8 -20 6z"/>
<path d="M3724 2316 c-42 -18 -79 -70 -104 -141 -27 -78 -25 -85 9 -39 38 53
60 71 97 78 37 8 44 1 72 -74 12 -30 21 -50 21 -43 1 7 -8 35 -19 63 -28 70
-27 74 20 67 53 -7 104 -40 123 -80 18 -37 41 -195 35 -237 -5 -30 1 -30 34
-3 13 12 14 20 6 45 -7 20 -8 67 -3 137 13 175 11 188 -44 215 -40 20 -209 28
-247 12z"/>
<path d="M1098 2313 c6 -2 18 -2 25 0 6 3 1 5 -13 5 -14 0 -19 -2 -12 -5z"/>
<path d="M1405 2300 c-33 -10 -51 -19 -39 -19 24 -1 84 18 99 30 5 5 7 8 5 8
-3 -1 -32 -9 -65 -19z"/>
<path d="M2850 2297 c0 -2 15 -16 33 -33 l32 -29 -29 33 c-28 30 -36 37 -36
29z"/>
<path d="M3328 2235 c29 -26 71 -74 93 -107 38 -56 71 -81 94 -71 6 3 24 21
40 41 27 33 28 35 5 19 -48 -33 -76 -23 -159 58 -42 41 -87 82 -101 91 -14 9
-1 -5 28 -31z"/>
<path d="M2476 2195 c8 -37 14 -45 14 -19 0 10 -5 26 -10 34 -8 11 -9 7 -4
-15z"/>
<path d="M2129 2183 l-24 -28 28 24 c25 23 32 31 24 31 -2 0 -14 -12 -28 -27z"/>
<path d="M3235 2190 c10 -11 20 -20 23 -20 3 0 -3 9 -13 20 -10 11 -20 20 -23
20 -3 0 3 -9 13 -20z"/>
<path d="M2931 2174 c0 -11 3 -14 6 -6 3 7 2 16 -1 19 -3 4 -6 -2 -5 -13z"/>
<path d="M4080 2162 c0 -42 113 -182 159 -197 11 -3 21 -11 21 -16 0 -13 -5
-12 -59 15 -68 35 -111 74 -132 121 l-19 40 0 -53 c0 -57 -11 -43 127 -170
l42 -39 33 31 c21 21 25 23 11 6 -41 -49 -51 -96 -17 -83 16 6 54 -23 54 -41
0 -6 12 -36 26 -66 45 -97 124 -160 202 -160 21 0 80 14 132 31 157 51 263 41
286 -29 l10 -33 26 24 c37 35 59 72 52 90 -10 28 -94 60 -171 65 -65 4 -78 2
-139 -27 -91 -42 -138 -52 -194 -40 -59 13 -121 54 -113 74 5 14 8 14 29 0 14
-9 25 -11 29 -5 4 6 2 9 -3 8 -5 -2 -23 7 -40 19 -22 16 -36 41 -52 89 -12 36
-31 75 -42 86 -18 18 -18 20 -2 16 10 -2 29 -21 41 -43 12 -22 23 -35 23 -30
0 6 16 17 35 23 19 7 61 33 95 57 93 69 139 62 251 -41 32 -30 64 -55 71 -55
7 -1 49 -1 93 -1 l80 1 -66 -9 c-37 -4 -79 -15 -94 -22 -26 -14 -24 -15 61
-21 102 -7 151 -21 177 -49 16 -20 17 -18 17 45 l0 66 -32 5 c-18 3 -68 9
-111 14 -88 11 -97 17 -141 87 -41 63 -102 106 -159 112 -41 5 -47 2 -97 -42
-30 -26 -72 -56 -94 -66 -44 -20 -142 -26 -131 -9 4 7 -3 8 -21 4 -21 -5 -25
-4 -19 6 6 10 4 12 -8 7 -10 -3 -17 -2 -17 4 0 6 -4 7 -10 4 -5 -3 -10 -1 -10
5 0 6 -4 8 -10 5 -5 -3 -10 -1 -10 5 0 6 -4 9 -9 6 -5 -3 -12 1 -15 10 -4 9
-9 14 -13 11 -10 -10 -94 84 -114 127 -10 23 -19 35 -19 28z m993 -349 c-7 -2
-21 -2 -30 0 -10 3 -4 5 12 5 17 0 24 -2 18 -5z"/>
<path d="M2767 2154 c-6 -6 109 -244 118 -244 3 0 -7 24 -21 53 -15 28 -42 85
-59 124 -17 40 -34 70 -38 67z"/>
<path d="M2066 2135 c-23 -17 -76 -20 -76 -4 0 5 -5 7 -11 4 -5 -4 -8 -12 -6
-18 2 -7 -3 -18 -12 -24 -9 -7 12 -3 46 8 34 11 67 27 74 35 15 18 9 17 -15
-1z"/>
<path d="M2492 2122 c-1 -18 -8 -45 -16 -60 -7 -15 -19 -51 -25 -81 -9 -45 -9
-55 3 -65 10 -7 18 -42 24 -96 5 -47 10 -68 11 -48 1 26 5 36 14 32 21 -8 47
-59 48 -96 1 -29 2 -30 8 -9 6 23 9 21 64 -39 136 -147 213 -291 180 -336 -5
-5 2 1 15 14 16 17 22 35 22 71 0 99 -62 221 -187 369 -84 99 -151 236 -156
317 -2 33 -4 45 -5 27z"/>
<path d="M2562 2130 c0 -14 2 -19 5 -12 2 6 2 18 0 25 -3 6 -5 1 -5 -13z"/>
<path d="M3290 2147 c0 -2 15 -16 33 -33 l32 -29 -29 33 c-28 30 -36 37 -36
29z"/>
<path d="M2960 2090 c6 -11 13 -20 16 -20 2 0 0 9 -6 20 -6 11 -13 20 -16 20
-2 0 0 -9 6 -20z"/>
<path d="M3058 2093 c6 -2 18 -2 25 0 6 3 1 5 -13 5 -14 0 -19 -2 -12 -5z"/>
<path d="M3591 2074 c0 -11 3 -14 6 -6 3 7 2 16 -1 19 -3 4 -6 -2 -5 -13z"/>
<path d="M3827 2025 c3 -33 7 -62 9 -64 7 -8 2 74 -6 99 -5 16 -6 2 -3 -35z"/>
<path d="M5 2060 c-3 -6 1 -7 9 -4 18 7 21 14 7 14 -6 0 -13 -4 -16 -10z"/>
<path d="M3360 2066 c0 -2 8 -10 18 -17 15 -13 16 -12 3 4 -13 16 -21 21 -21
13z"/>
<path d="M3590 1990 c0 -33 52 -123 97 -168 56 -56 136 -92 272 -121 117 -26
135 -36 211 -122 80 -90 127 -113 225 -112 39 0 113 9 165 21 52 12 106 23
120 25 14 3 -40 2 -121 -1 -120 -4 -154 -2 -196 12 -74 25 -128 68 -164 131
-52 92 -72 101 -291 130 -81 10 -122 21 -159 42 -55 29 -116 93 -143 145 -8
18 -16 26 -16 18z"/>
<path d="M1509 1953 l-24 -28 28 24 c25 23 32 31 24 31 -2 0 -14 -12 -28 -27z"/>
<path d="M1019 1934 c-18 -20 -79 -75 -134 -122 -55 -47 -123 -107 -151 -133
-64 -59 -122 -88 -254 -127 -58 -17 -188 -66 -290 -110 l-185 -80 -3 -56 c-2
-31 -2 -56 0 -56 2 0 35 13 73 28 93 38 129 47 120 30 -4 -7 1 -4 10 7 9 11
19 20 23 20 4 0 43 23 87 51 108 68 195 116 195 107 0 -5 -19 -19 -43 -32 -98
-55 -208 -134 -237 -172 -18 -22 -31 -42 -29 -44 3 -2 41 14 86 35 45 22 93
42 107 44 45 8 128 59 180 111 28 28 93 99 144 158 52 60 118 124 148 144 30
20 54 40 54 45 0 5 5 6 10 3 6 -3 10 -2 10 3 0 5 17 15 38 23 34 14 38 13 56
-4 16 -17 28 -19 89 -13 66 6 74 9 132 59 34 28 59 53 55 55 -3 1 -46 -13 -94
-33 -97 -39 -118 -42 -136 -20 -10 12 -10 24 -1 56 21 69 -6 79 -60 23z"/>
<path d="M1385 1940 c-22 -10 -34 -19 -27 -19 14 -1 72 27 72 34 0 6 3 7 -45
-15z"/>
<path d="M3811 1927 c-13 -21 -12 -21 5 -5 10 10 16 20 13 22 -3 3 -11 -5 -18
-17z"/>
<path d="M1719 1923 c-13 -16 -12 -17 4 -4 9 7 17 15 17 17 0 8 -8 3 -21 -13z"/>
<path d="M1456 1911 c-5 -8 -39 -17 -135 -37 -13 -3 -54 -33 -90 -68 -36 -34
-87 -78 -113 -96 -27 -18 -46 -35 -44 -37 8 -8 81 36 131 78 28 23 91 61 140
84 50 23 99 52 109 64 11 11 16 21 13 21 -3 0 -8 -4 -11 -9z"/>
<path d="M2310 1874 c0 -37 2 -40 45 -55 l45 -17 1 32 1 31 8 -30 8 -30 1 27
c0 15 6 39 11 54 9 22 8 25 -2 17 -26 -21 -80 -24 -100 -7 -17 16 -18 15 -18
-22z"/>
<path d="M3480 1886 c0 -2 8 -10 18 -17 15 -13 16 -12 3 4 -13 16 -21 21 -21
13z"/>
<path d="M83 1863 c9 -2 25 -2 35 0 9 3 1 5 -18 5 -19 0 -27 -2 -17 -5z"/>
<path d="M2923 1829 c8 -19 22 -49 30 -65 14 -25 16 -26 14 -6 -1 12 -4 22 -8
22 -4 0 -9 10 -12 23 -4 12 -13 31 -22 42 -14 18 -15 17 -2 -16z"/>
<path d="M0 1808 l0 -45 51 -11 c28 -7 66 -12 84 -12 19 0 36 -4 40 -9 3 -6
36 -8 73 -7 37 2 54 2 37 -1 -123 -17 -285 -59 -285 -74 0 -4 25 1 56 11 75
26 193 50 246 50 47 0 238 -57 238 -72 0 -20 40 15 70 62 23 36 47 58 81 76
65 33 63 39 -3 9 -73 -34 -131 -33 -200 4 -50 27 -67 30 -224 40 -93 6 -190
14 -216 17 l-48 6 0 -44z"/>
<path d="M3540 1815 c19 -19 36 -35 39 -35 3 0 -10 16 -29 35 -19 19 -36 35
-39 35 -3 0 10 -16 29 -35z"/>
<path d="M2221 1824 c0 -11 3 -14 6 -6 3 7 2 16 -1 19 -3 4 -6 -2 -5 -13z"/>
<path d="M1169 1773 c-13 -16 -12 -17 4 -4 9 7 17 15 17 17 0 8 -8 3 -21 -13z"/>
<path d="M1540 1780 c0 -8 -11 -28 -25 -44 -38 -44 -30 -46 11 -3 27 29 34 41
25 50 -8 8 -11 7 -11 -3z"/>
<path d="M2402 1755 c0 -16 2 -22 5 -12 2 9 2 23 0 30 -3 6 -5 -1 -5 -18z"/>
<path d="M2970 1724 c0 -23 57 -108 87 -131 21 -15 59 -49 84 -75 46 -46 104
-88 124 -88 6 0 -3 8 -20 19 -65 39 -155 156 -155 200 0 6 11 22 25 37 25 27
32 44 17 44 -4 0 -21 -20 -36 -45 -25 -39 -31 -43 -48 -34 -11 6 -27 24 -36
40 -15 25 -42 47 -42 33z"/>
<path d="M2392 1700 c0 -14 2 -19 5 -12 2 6 2 18 0 25 -3 6 -5 1 -5 -13z"/>
<path d="M2491 1704 c0 -11 3 -14 6 -6 3 7 2 16 -1 19 -3 4 -6 -2 -5 -13z"/>
<path d="M393 1673 c9 -2 23 -2 30 0 6 3 -1 5 -18 5 -16 0 -22 -2 -12 -5z"/>
<path d="M328 1663 c7 -3 16 -2 19 1 4 3 -2 6 -13 5 -11 0 -14 -3 -6 -6z"/>
<path d="M977 1616 c-43 -29 -85 -60 -93 -68 -13 -12 -11 -14 16 -12 l31 2
-36 -41 c-19 -23 -44 -60 -56 -82 l-20 -40 23 30 c27 37 93 100 133 128 26 18
25 15 -10 -24 -22 -24 -31 -36 -19 -26 11 9 28 17 37 17 14 0 9 -12 -20 -57
l-38 -56 0 -160 c0 -157 0 -158 17 -120 17 39 48 176 48 213 0 12 -7 34 -15
51 -14 27 -14 33 3 72 28 64 83 107 135 107 45 0 107 -31 107 -53 0 -7 -6 -20
-12 -27 -7 -8 6 3 30 25 23 21 42 44 42 51 0 32 -38 56 -125 79 -49 13 -79 24
-66 24 29 1 25 6 -9 14 -19 4 -43 -7 -103 -47z"/>
<path d="M2562 1650 c0 -14 2 -19 5 -12 2 6 2 18 0 25 -3 6 -5 1 -5 -13z"/>
<path d="M3851 1646 c2 -2 15 -9 29 -15 24 -11 24 -11 6 3 -16 13 -49 24 -35
12z"/>
<path d="M2403 1605 c0 -22 2 -30 4 -17 2 12 2 30 0 40 -3 9 -5 -1 -4 -23z"/>
<path d="M5062 1610 c0 -14 2 -19 5 -12 2 6 2 18 0 25 -3 6 -5 1 -5 -13z"/>
<path d="M2211 1594 c0 -11 3 -14 6 -6 3 7 2 16 -1 19 -3 4 -6 -2 -5 -13z"/>
<path d="M1912 1560 c0 -14 2 -19 5 -12 2 6 2 18 0 25 -3 6 -5 1 -5 -13z"/>
<path d="M2411 1524 c0 -11 3 -14 6 -6 3 7 2 16 -1 19 -3 4 -6 -2 -5 -13z"/>
<path d="M3050 1520 c6 -11 13 -20 16 -20 2 0 0 9 -6 20 -6 11 -13 20 -16 20
-2 0 0 -9 6 -20z"/>
<path d="M4503 1523 c15 -2 39 -2 55 0 15 2 2 4 -28 4 -30 0 -43 -2 -27 -4z"/>
<path d="M3281 1505 c-1 -27 10 -41 37 -49 12 -4 22 -12 22 -17 0 -5 -10 -14
-22 -19 -22 -8 -22 -9 -2 -9 25 -1 55 -33 83 -89 12 -23 30 -47 40 -54 17 -11
17 -12 -7 -33 -21 -18 -26 -32 -28 -81 -1 -32 0 -49 2 -36 12 49 93 12 114
-54 7 -20 9 -56 5 -87 l-6 -52 24 51 c14 28 28 69 31 91 9 52 -10 126 -41 159
-25 27 -20 47 15 59 21 6 67 73 58 82 -4 4 -24 -13 -45 -37 -29 -34 -44 -43
-69 -43 -41 0 -75 31 -91 82 -7 24 -28 54 -54 77 -23 21 -47 47 -54 58 -12 21
-12 21 -12 1z"/>
<path d="M3970 1516 c0 -2 8 -10 18 -17 15 -13 16 -12 3 4 -13 16 -21 21 -21
13z"/>
<path d="M4718 1503 c7 -3 16 -2 19 1 4 3 -2 6 -13 5 -11 0 -14 -3 -6 -6z"/>
<path d="M2211 1484 c0 -11 3 -14 6 -6 3 7 2 16 -1 19 -3 4 -6 -2 -5 -13z"/>
<path d="M2422 1470 c0 -14 2 -19 5 -12 2 6 2 18 0 25 -3 6 -5 1 -5 -13z"/>
<path d="M3085 1460 c9 -16 18 -30 21 -30 2 0 -2 14 -11 30 -9 17 -18 30 -21
30 -2 0 2 -13 11 -30z"/>
<path d="M2630 1476 c0 -2 8 -10 18 -17 15 -13 16 -12 3 4 -13 16 -21 21 -21
13z"/>
<path d="M4020 1461 c0 -6 4 -13 10 -16 6 -3 7 1 4 9 -7 18 -14 21 -14 7z"/>
<path d="M909 1443 c-13 -16 -12 -17 4 -4 9 7 17 15 17 17 0 8 -8 3 -21 -13z"/>
<path d="M2432 1410 c0 -14 2 -19 5 -12 2 6 2 18 0 25 -3 6 -5 1 -5 -13z"/>
<path d="M2699 1411 c13 -12 28 -21 34 -21 12 0 11 0 -28 24 l-30 17 24 -20z"/>
<path d="M2763 1383 c9 -2 23 -2 30 0 6 3 -1 5 -18 5 -16 0 -22 -2 -12 -5z"/>
<path d="M2442 1345 c0 -16 2 -22 5 -12 2 9 2 23 0 30 -3 6 -5 -1 -5 -18z"/>
<path d="M2148 1350 c-20 -12 -58 -72 -58 -91 0 -8 12 -21 28 -30 15 -8 37
-34 49 -56 27 -48 17 -68 -39 -76 -31 -5 -38 -3 -38 11 -1 13 -8 9 -29 -15
-16 -17 -32 -29 -34 -26 -3 2 -13 -7 -22 -21 -24 -36 -80 -46 -107 -18 -11 11
-23 35 -27 53 -7 31 -8 28 -15 -30 -8 -73 -3 -83 56 -99 29 -8 40 -7 49 5 19
22 90 57 126 61 40 4 88 -37 80 -69 -3 -10 -1 -17 4 -13 26 15 3 -30 -35 -73
-56 -61 -68 -53 -14 10 l40 48 -37 -25 c-45 -31 -60 -32 -77 -7 -11 15 -24 18
-68 16 -49 -2 -58 -6 -85 -38 -17 -20 -36 -52 -42 -71 l-11 -35 28 21 c31 22
75 27 93 9 8 -8 6 -20 -6 -46 -23 -48 -12 -44 13 5 11 22 25 40 31 40 6 0 0
-19 -13 -42 -14 -24 -28 -51 -31 -60 -11 -31 2 -19 22 20 24 47 88 116 88 95
0 -9 -31 -77 -69 -151 -64 -127 -82 -175 -44 -117 25 38 47 33 35 -7 -19 -68
-7 -60 16 11 13 40 28 78 34 84 15 15 103 -33 121 -65 12 -22 12 -33 3 -58 -6
-16 -7 -28 -3 -25 11 7 49 108 60 160 7 31 8 24 4 -30 -7 -96 -34 -146 -124
-237 -42 -42 -73 -75 -68 -72 13 8 10 -14 -7 -49 -15 -32 -15 -32 2 -7 35 50
83 92 100 88 28 -6 21 -95 -16 -212 -34 -107 -35 -116 -22 -116 15 0 71 173
135 420 19 74 35 125 36 114 0 -38 57 -163 94 -208 20 -25 52 -54 71 -66 28
-17 35 -27 30 -44 -2 -11 -2 -15 1 -8 3 6 9 12 14 12 17 0 55 -66 81 -140 21
-60 31 -76 49 -78 20 -3 21 -1 15 30 -9 42 -48 161 -69 213 -15 36 -15 38 -1
20 9 -11 26 -38 37 -60 11 -22 33 -56 48 -75 16 -20 38 -57 51 -83 22 -45 41
-58 54 -37 9 14 -21 101 -63 185 -46 92 -150 198 -212 216 -25 7 -51 17 -58
23 -43 32 -86 182 -102 351 -19 202 -98 564 -125 571 -5 2 -18 -1 -27 -6z m46
-276 c5 -14 4 -15 -9 -4 -17 14 -19 20 -6 20 5 0 12 -7 15 -16z m27 -198 c10
-24 22 -72 26 -106 l6 -62 -31 16 c-17 9 -37 16 -44 15 -7 0 -4 -4 7 -9 14 -6
1 -9 -42 -8 -68 1 -71 5 -53 54 9 23 99 144 108 144 2 0 12 -20 23 -44z"/>
<path d="M4090 1347 c0 -2 15 -16 33 -33 l32 -29 -29 33 c-28 30 -36 37 -36
29z"/>
<path d="M2963 1285 c0 -27 2 -38 4 -22 2 15 2 37 0 50 -2 12 -4 0 -4 -28z"/>
<path d="M5058 1265 c-53 -39 -107 -114 -165 -230 -47 -94 -58 -125 -44 -125
5 0 12 8 15 18 4 10 20 33 37 50 25 26 39 32 73 32 71 0 134 -54 121 -103 -5
-20 -4 -19 9 3 9 14 15 44 16 67 0 34 -5 46 -32 69 -18 15 -52 36 -75 46 -48
21 -50 23 -25 26 9 1 43 7 75 14 l57 12 0 78 c0 43 -3 78 -7 78 -5 0 -29 -16
-55 -35z"/>
<path d="M1772 1248 c-6 -8 -22 -38 -36 -68 -25 -53 -25 -55 -6 -62 25 -9 45
-49 59 -119 14 -66 5 -97 -42 -149 l-32 -35 33 30 c43 38 69 88 86 167 19 87
28 156 18 140 -6 -9 -12 -1 -20 25 -7 21 -20 48 -30 61 -15 19 -20 21 -30 10z"/>
<path d="M1891 1239 c-1 -8 6 -24 15 -35 15 -19 15 -19 6 1 -5 11 -12 27 -15
35 -5 13 -6 13 -6 -1z"/>
<path d="M4248 1243 c7 -3 16 -2 19 1 4 3 -2 6 -13 5 -11 0 -14 -3 -6 -6z"/>
<path d="M2102 1180 c0 -14 2 -19 5 -12 2 6 2 18 0 25 -3 6 -5 1 -5 -13z"/>
<path d="M2700 1180 c-11 -11 -20 -23 -20 -27 0 -5 28 -16 63 -26 50 -15 72
-28 114 -72 28 -29 62 -73 74 -96 49 -97 89 -140 89 -96 0 7 -4 6 -11 -3 -9
-12 -10 -11 -6 8 3 12 1 20 -3 17 -12 -7 -23 32 -14 46 4 8 3 9 -4 5 -7 -4
-21 24 -38 80 -30 95 -67 148 -121 170 -47 20 -99 18 -123 -6z"/>
<path d="M2921 1134 c0 -11 3 -14 6 -6 3 7 2 16 -1 19 -3 4 -6 -2 -5 -13z"/>
<path d="M3785 1115 c-31 -30 -36 -92 -7 -79 51 22 89 16 228 -39 76 -31 160
-59 185 -62 46 -7 184 15 144 22 -72 14 -179 54 -300 114 -160 79 -207 88
-250 44z"/>
<path d="M4010 1126 c0 -2 8 -10 18 -17 15 -13 16 -12 3 4 -13 16 -21 21 -21
13z"/>
<path d="M1193 1089 c-12 -19 -28 -50 -37 -69 -9 -19 -32 -60 -52 -90 -28 -45
-74 -165 -74 -194 0 -4 12 2 26 13 15 12 32 21 39 21 11 0 45 101 45 135 0 8
5 15 11 15 11 0 6 -190 -8 -269 -4 -23 -2 -32 5 -27 16 9 42 -46 42 -88 0 -19
-5 -47 -10 -62 -6 -15 -9 -29 -7 -31 8 -7 77 189 77 217 0 15 -7 33 -16 41
-36 29 -45 66 -38 147 l8 77 12 -40 c7 -22 13 -33 14 -25 0 8 7 1 14 -16 17
-39 52 -64 86 -63 l25 1 -24 7 c-13 3 -32 18 -42 31 -18 25 -49 173 -49 234 0
18 -6 40 -13 50 -13 18 -15 16 -34 -15z m-36 -146 c-3 -10 -5 -4 -5 12 0 17 2
24 5 18 2 -7 2 -21 0 -30z"/>
<path d="M471 1050 c-24 -11 -66 -36 -92 -55 -66 -47 -123 -75 -156 -75 -16 0
-49 15 -77 35 -27 19 -55 35 -61 35 -17 0 -49 -37 -35 -42 6 -2 12 -13 13 -26
1 -17 9 -23 37 -28 19 -3 38 -6 42 -7 4 -1 -26 -24 -67 -52 -68 -45 -75 -53
-75 -82 0 -18 1 -33 3 -33 1 0 57 20 123 43 75 27 154 64 203 95 121 77 180
84 239 30 15 -15 22 -33 22 -57 l1 -36 32 60 c24 45 33 54 35 38 2 -11 -4 -38
-12 -58 -14 -33 -14 -36 -1 -25 17 14 22 12 27 -12 2 -10 -22 -37 -66 -75 -74
-62 -129 -126 -105 -121 15 3 15 -3 4 -37 -7 -18 -6 -18 9 2 26 34 80 63 120
63 47 0 52 -30 14 -82 -10 -16 -17 -28 -14 -28 3 0 26 30 51 67 52 78 56 73
17 -24 -37 -90 -81 -153 -144 -205 -29 -24 -91 -81 -138 -127 -47 -47 -56 -58
-20 -25 36 33 83 73 105 89 66 48 95 77 152 154 50 66 56 72 70 58 9 -9 19
-33 23 -54 l6 -38 27 50 c33 63 35 38 3 -30 -29 -58 -64 -98 -129 -145 -26
-18 -47 -34 -47 -36 0 -1 19 2 43 8 41 9 54 16 109 58 26 20 28 20 35 4 14
-36 -17 -68 -128 -134 -94 -56 -196 -124 -232 -156 -31 -29 -34 -34 -17 -34
12 0 44 17 73 39 71 53 113 73 145 69 25 -3 23 -6 -28 -35 -72 -42 -93 -57
-52 -37 19 8 40 13 47 10 9 -3 33 20 63 62 27 37 77 99 111 137 84 95 92 113
92 198 0 126 -35 257 -95 355 -19 31 -43 89 -52 127 -14 55 -25 78 -54 108
-35 34 -42 37 -96 37 -37 0 -75 -8 -103 -20z"/>
<path d="M1280 1066 c0 -2 7 -7 16 -10 8 -3 12 -2 9 4 -6 10 -25 14 -25 6z"/>
<path d="M28 1041 c-24 -14 -28 -22 -28 -60 0 -38 2 -42 16 -30 22 18 46 67
42 88 -3 16 -5 16 -30 2z"/>
<path d="M2046 995 c-9 -26 -7 -32 5 -12 6 10 9 21 6 23 -2 3 -7 -2 -11 -11z"/>
<path d="M3683 968 c-21 -35 -1 -69 100 -166 216 -206 207 -196 207 -235 0
-23 -8 -45 -22 -62 l-23 -26 -1 43 c-1 24 -8 57 -17 73 -36 71 -192 218 -244
231 -19 5 -30 2 -40 -11 -14 -21 -16 -79 -3 -110 8 -18 9 -17 9 8 1 21 6 27
24 27 63 0 241 -151 253 -215 3 -19 4 -42 0 -50 -10 -27 11 -16 52 29 23 25
44 56 48 70 3 14 10 26 14 26 4 0 31 -25 58 -55 l50 -55 7 39 c9 55 -10 116
-52 162 -19 21 -86 69 -147 106 -61 37 -139 93 -173 125 -63 58 -85 69 -100
46z"/>
<path d="M2343 915 c0 -22 2 -30 4 -17 2 12 2 30 0 40 -3 9 -5 -1 -4 -23z"/>
<path d="M2361 864 c0 -11 3 -14 6 -6 3 7 2 16 -1 19 -3 4 -6 -2 -5 -13z"/>
<path d="M4860 856 c0 -2 8 -10 18 -17 15 -13 16 -12 3 4 -13 16 -21 21 -21
13z"/>
<path d="M3025 810 c-3 -5 -1 -10 4 -10 6 0 11 5 11 10 0 6 -2 10 -4 10 -3 0
-8 -4 -11 -10z"/>
<path d="M3511 804 c0 -11 3 -14 6 -6 3 7 2 16 -1 19 -3 4 -6 -2 -5 -13z"/>
<path d="M2352 790 c0 -14 2 -19 5 -12 2 6 2 18 0 25 -3 6 -5 1 -5 -13z"/>
<path d="M4712 764 c-20 -20 -29 -33 -19 -30 22 7 22 6 -8 -33 -23 -32 -23
-35 -9 -64 l16 -29 18 30 c39 64 93 66 188 7 32 -20 87 -44 121 -55 34 -10 68
-24 76 -30 9 -7 15 -8 20 0 8 13 -86 120 -150 170 -73 57 -104 70 -163 70 -47
0 -56 -4 -90 -36z"/>
<path d="M1395 781 c-71 -12 -105 -42 -119 -103 -5 -21 -3 -28 9 -28 8 0 15 6
15 14 0 11 40 26 72 26 5 0 6 -17 2 -37 -6 -34 -5 -36 8 -20 10 13 24 18 48
15 33 -3 35 -5 38 -46 3 -40 0 -46 -40 -83 -24 -22 -37 -38 -30 -34 20 10 52
-5 52 -26 0 -10 -13 -46 -29 -79 l-29 -60 26 21 c39 31 41 3 3 -52 -16 -24
-33 -55 -37 -69 l-7 -24 24 26 c36 39 118 77 223 104 52 12 117 34 145 49 28
14 51 22 51 18 0 -24 -42 -140 -68 -187 -35 -65 -33 -74 3 -16 26 42 70 144
140 325 60 154 61 158 20 85 -19 -36 -33 -54 -30 -40 4 20 1 17 -14 -10 -10
-19 -28 -43 -40 -54 -24 -22 -258 -109 -272 -101 -5 4 -9 2 -9 -3 0 -5 -6 -9
-12 -9 -7 -1 -28 -7 -45 -14 -29 -12 -35 -11 -50 5 -10 10 -13 16 -7 13 6 -3
31 15 55 41 l44 47 -47 -45 c-58 -54 -62 -43 -8 25 43 55 48 71 25 101 -18 23
-18 46 -4 99 8 26 14 35 18 25 3 -8 17 -16 30 -18 13 -1 39 -9 57 -18 28 -13
32 -19 23 -30 -10 -12 -9 -13 5 -8 23 9 86 -57 86 -90 0 -14 -3 -26 -7 -26 -5
0 -19 -10 -33 -21 -20 -17 -17 -17 20 4 32 18 52 39 69 71 21 42 23 51 12 86
-6 21 -23 52 -36 68 -14 17 -25 36 -25 43 0 7 -3 10 -6 7 -3 -4 -29 5 -57 18
-43 20 -67 24 -137 23 -47 -1 -103 -5 -125 -8z"/>
<path d="M2361 724 c0 -11 3 -14 6 -6 3 7 2 16 -1 19 -3 4 -6 -2 -5 -13z"/>
<path d="M3191 664 c0 -11 3 -14 6 -6 3 7 2 16 -1 19 -3 4 -6 -2 -5 -13z"/>
<path d="M4637 674 c-3 -4 -21 -8 -39 -10 -37 -4 -222 -91 -281 -131 -80 -55
-161 -213 -192 -375 -16 -83 -20 -146 -9 -135 4 3 20 -1 36 -9 22 -11 61 -14
171 -13 l142 2 -40 18 c-23 11 -64 19 -98 19 -69 0 -121 20 -138 52 -7 12 -18
46 -25 75 -11 48 -11 52 8 56 15 4 23 -2 34 -28 8 -19 14 -39 14 -44 0 -5 4
-12 9 -15 5 -3 2 17 -6 44 -14 49 -14 51 9 70 57 47 109 10 228 -164 57 -83
85 -101 125 -78 15 8 15 10 0 22 -13 11 -15 10 -9 -4 12 -30 -4 -16 -35 32
-33 51 -38 68 -19 56 7 -4 8 -3 4 5 -4 6 -11 9 -16 6 -12 -7 -53 62 -44 76 5
8 3 9 -6 4 -10 -6 -12 -4 -7 8 3 9 1 19 -5 23 -7 5 -8 2 -4 -7 4 -8 0 -5 -8 6
-9 11 -14 25 -12 32 3 7 0 15 -6 19 -7 5 -8 2 -3 -6 6 -9 4 -11 -4 -6 -7 5
-10 14 -7 22 3 7 0 16 -6 20 -7 5 -8 2 -3 -7 4 -8 -8 2 -26 21 -19 19 -33 38
-32 42 2 3 -21 5 -51 5 -48 -2 -52 0 -42 16 6 9 13 17 16 17 3 0 19 10 34 23
78 61 66 63 100 -21 30 -72 33 -76 66 -80 19 -2 41 -9 49 -15 8 -7 -8 24 -36
68 -66 106 -65 105 -59 105 3 0 27 -31 52 -70 26 -38 51 -70 56 -70 5 0 6 -4
3 -10 -3 -5 0 -8 7 -5 7 3 49 -22 93 -55 97 -73 230 -153 246 -148 7 2 -32 44
-87 93 -168 154 -235 218 -277 270 -31 39 -22 32 41 -30 45 -44 82 -76 82 -72
0 4 37 -20 83 -52 146 -103 186 -125 236 -125 34 -1 57 7 89 27 23 15 47 25
52 22 6 -4 10 -30 11 -58 2 -107 17 -103 18 6 l1 107 -40 -26 c-51 -34 -116
-42 -161 -20 -19 9 -81 62 -139 118 -105 101 -105 109 0 12 63 -58 102 -81
145 -85 67 -5 95 1 123 29 15 15 17 18 5 8 -24 -21 -67 -25 -116 -12 -24 6
-27 9 -17 21 10 13 8 15 -12 15 -28 0 -89 41 -158 104 -25 23 -34 28 -20 12
14 -16 21 -27 15 -25 -52 24 -78 39 -128 72 l-58 38 40 29 c39 29 70 70 53 70
-5 0 -11 -3 -15 -6z"/>
<path d="M413 635 c-76 -38 -130 -85 -168 -146 -36 -57 -31 -58 20 -6 46 48
88 72 107 61 12 -8 3 -106 -13 -138 -7 -12 -7 -17 -1 -11 5 6 26 51 47 100 20
50 50 109 66 133 17 23 26 42 21 42 -5 0 -41 -16 -79 -35z m37 -20 c0 -2 -9
-9 -20 -15 -24 -13 -50 -2 -29 11 15 9 49 12 49 4z"/>
<path d="M3200 635 c0 -5 5 -17 10 -25 5 -8 10 -10 10 -5 0 6 -5 17 -10 25 -5
8 -10 11 -10 5z"/>
<path d="M991 590 c-7 -25 -23 -76 -36 -114 -23 -65 -26 -102 -4 -63 15 26 26
21 39 -19 17 -51 8 -138 -23 -214 -14 -35 -24 -66 -22 -68 11 -11 84 165 96
227 10 59 9 83 -6 167 -22 127 -30 141 -44 84z"/>
<path d="M2406 612 c-2 -4 -1 -14 5 -22 7 -12 9 -10 9 8 0 23 -5 28 -14 14z"/>
<path d="M2750 585 c13 -14 25 -25 27 -25 9 0 -33 49 -41 50 -5 0 1 -11 14
-25z"/>
<path d="M1251 584 c0 -11 3 -14 6 -6 3 7 2 16 -1 19 -3 4 -6 -2 -5 -13z"/>
<path d="M1361 584 c0 -11 3 -14 6 -6 3 7 2 16 -1 19 -3 4 -6 -2 -5 -13z"/>
<path d="M1341 546 c-6 -7 -24 -16 -39 -19 -19 -4 -35 -18 -50 -46 l-23 -40
32 16 c27 13 33 14 46 1 12 -13 12 -21 -6 -68 -31 -83 -18 -70 19 17 30 72 50
153 38 153 -3 0 -11 -6 -17 -14z"/>
<path d="M4750 535 c13 -14 26 -25 28 -25 3 0 -5 11 -18 25 -13 14 -26 25 -28
25 -3 0 5 -11 18 -25z"/>
<path d="M1241 534 c0 -11 3 -14 6 -6 3 7 2 16 -1 19 -3 4 -6 -2 -5 -13z"/>
<path d="M5077 513 c-13 -12 -7 -40 12 -57 18 -17 19 -16 26 13 3 17 4 35 0
41 -7 11 -28 13 -38 3z"/>
<path d="M2460 476 c0 -2 8 -10 18 -17 15 -13 16 -12 3 4 -13 16 -21 21 -21
13z"/>
<path d="M0 396 c0 -56 4 -77 17 -87 9 -8 24 -31 34 -53 l17 -38 17 26 c41 62
27 147 -32 202 -44 41 -53 33 -53 -50z"/>
<path d="M585 460 c-4 -6 -41 -34 -83 -62 -42 -28 -80 -56 -84 -62 -4 -6 -8
-9 -8 -6 0 10 -238 -226 -274 -271 -59 -75 -42 -66 47 23 45 46 110 107 145
136 34 29 69 66 77 82 8 15 49 52 92 82 71 50 114 88 100 88 -3 0 -9 -5 -12
-10z"/>
<path d="M1971 444 c0 -11 3 -14 6 -6 3 7 2 16 -1 19 -3 4 -6 -2 -5 -13z"/>
<path d="M2119 433 c-13 -16 -12 -17 4 -4 16 13 21 21 13 21 -2 0 -10 -8 -17
-17z"/>
<path d="M4898 443 c6 -2 18 -2 25 0 6 3 1 5 -13 5 -14 0 -19 -2 -12 -5z"/>
<path d="M1962 400 c0 -14 2 -19 5 -12 2 6 2 18 0 25 -3 6 -5 1 -5 -13z"/>
<path d="M4690 335 c13 -14 26 -25 28 -25 3 0 -5 11 -18 25 -13 14 -26 25 -28
25 -3 0 5 -11 18 -25z"/>
<path d="M1169 328 c-7 -13 -26 -39 -42 -58 -26 -30 -97 -166 -97 -185 0 -4 9
3 19 16 26 32 42 15 49 -50 8 -87 27 -62 51 67 11 64 24 140 27 167 3 28 8 53
11 58 2 4 2 7 -1 7 -3 0 -11 -10 -17 -22z"/>
<path d="M1953 310 c0 -25 2 -35 4 -22 2 12 2 32 0 45 -2 12 -4 2 -4 -23z"/>
<path d="M3186 341 c-4 -7 -18 -11 -29 -10 -51 4 -78 -2 -97 -21 -11 -11 -20
-26 -20 -32 0 -9 4 -8 11 2 9 12 10 12 5 -3 -3 -10 -6 -28 -7 -40 -1 -20 -1
-20 -8 2 -4 14 -7 -8 -7 -53 0 -71 14 -80 15 -10 1 41 24 47 79 21 58 -27 126
-105 139 -159 l11 -43 1 35 2 35 14 -32 c13 -29 18 -33 55 -33 33 0 40 3 40
19 0 41 -43 154 -67 177 -14 12 -22 28 -18 34 3 6 3 10 -2 8 -10 -2 -99 85
-105 103 -3 10 -6 10 -12 0z"/>
<path d="M3392 330 c0 -14 2 -19 5 -12 2 6 2 18 0 25 -3 6 -5 1 -5 -13z"/>
<path d="M3805 323 c1 -10 21 -59 44 -110 22 -50 47 -117 55 -148 16 -61 26
-80 26 -49 0 59 -85 282 -111 292 -5 2 -7 8 -4 12 3 5 1 11 -4 15 -6 3 -8 -2
-6 -12z"/>
<path d="M1266 305 c-9 -26 -7 -32 5 -12 6 10 9 21 6 23 -2 3 -7 -2 -11 -11z"/>
<path d="M1366 282 c-35 -67 -70 -282 -46 -282 13 0 18 28 23 131 3 57 12 101
25 132 23 51 21 64 -2 19z"/>
<path d="M1975 270 c-9 -16 -13 -30 -11 -30 3 0 12 14 21 30 9 17 13 30 11 30
-3 0 -12 -13 -21 -30z"/>
<path d="M4760 276 c0 -2 8 -10 18 -17 15 -13 16 -12 3 4 -13 16 -21 21 -21
13z"/>
<path d="M140 251 c0 -7 -31 -46 -70 -85 -39 -40 -70 -81 -70 -92 0 -14 9 -8
40 26 57 65 114 149 107 157 -4 3 -7 1 -7 -6z"/>
<path d="M1831 244 c0 -11 3 -14 6 -6 3 7 2 16 -1 19 -3 4 -6 -2 -5 -13z"/>
<path d="M462 220 c-23 -17 -42 -33 -42 -37 0 -4 5 -2 12 5 7 7 21 12 31 12
16 0 18 -5 12 -27 -3 -16 -12 -40 -20 -55 l-13 -28 37 30 c21 17 53 32 72 35
43 5 106 34 113 50 3 10 -9 12 -55 8 -52 -5 -62 -3 -78 16 -10 11 -21 21 -23
21 -3 0 -24 -14 -46 -30z"/>
<path d="M3371 234 c0 -11 3 -14 6 -6 3 7 2 16 -1 19 -3 4 -6 -2 -5 -13z"/>
<path d="M1236 225 c-9 -26 -7 -32 5 -12 6 10 9 21 6 23 -2 3 -7 -2 -11 -11z"/>
<path d="M923 190 c0 -25 2 -35 4 -22 2 12 2 32 0 45 -2 12 -4 2 -4 -23z"/>
<path d="M4877 169 c28 -31 68 -82 88 -113 l36 -56 59 0 60 0 0 35 c0 41 -16
51 -129 85 -54 16 -85 32 -120 63 l-46 42 52 -56z"/>
<path d="M1823 175 c0 -22 2 -30 4 -17 2 12 2 30 0 40 -3 9 -5 -1 -4 -23z"/>
<path d="M1958 188 c-22 -34 -42 -74 -31 -63 14 15 55 85 50 85 -3 0 -11 -10
-19 -22z"/>
<path d="M3382 190 c0 -14 2 -19 5 -12 2 6 2 18 0 25 -3 6 -5 1 -5 -13z"/>
<path d="M2424 168 l-19 -23 23 19 c21 18 27 26 19 26 -2 0 -12 -10 -23 -22z"/>
<path d="M1211 144 c0 -11 3 -14 6 -6 3 7 2 16 -1 19 -3 4 -6 -2 -5 -13z"/>
<path d="M3392 140 c0 -14 2 -19 5 -12 2 6 2 18 0 25 -3 6 -5 1 -5 -13z"/>
<path d="M910 127 c0 -8 -8 -39 -18 -70 -12 -35 -15 -55 -8 -54 18 3 26 21 20
41 -4 10 -2 16 2 13 5 -3 10 15 11 39 1 24 0 44 -2 44 -3 0 -5 -6 -5 -13z"/>
<path d="M1675 98 l-40 -43 43 40 c39 36 47 45 39 45 -2 0 -21 -19 -42 -42z"/>
<path d="M1837 112 c3 -11 -7 -32 -24 -53 -15 -19 -20 -28 -10 -20 23 18 32 8
17 -19 -9 -16 -9 -21 -1 -19 7 3 28 33 48 68 31 55 33 61 13 51 -16 -8 -25 -8
-35 0 -11 9 -12 7 -8 -8z"/>
<path d="M2385 118 c-25 -13 -115 -100 -115 -110 0 -16 32 -7 66 18 20 16 52
29 77 31 38 5 48 1 79 -26 43 -38 73 -42 62 -8 -12 41 -34 76 -56 91 -26 18
-84 20 -113 4z"/>
<path d="M240 64 c-30 -25 -58 -49 -62 -53 -4 -3 19 -8 51 -9 l59 -3 30 49 30
49 -26 -5 c-17 -3 -23 -1 -18 7 14 23 -11 9 -64 -35z"/>
<path d="M3402 80 c0 -14 2 -19 5 -12 2 6 2 18 0 25 -3 6 -5 1 -5 -13z"/>
<path d="M3041 74 c0 -11 3 -14 6 -6 3 7 2 16 -1 19 -3 4 -6 -2 -5 -13z"/>
<path d="M1370 31 c-16 -30 -14 -31 53 -31 l62 1 -40 24 c-48 30 -61 31 -75 6z"/>
<path d="M2238 33 c7 -3 16 -2 19 1 4 3 -2 6 -13 5 -11 0 -14 -3 -6 -6z"/>
<path d="M3412 20 c0 -14 2 -19 5 -12 2 6 2 18 0 25 -3 6 -5 1 -5 -13z"/>
</g>
</svg>